<?xml version="1.0" encoding="UTF-8"?>
<svg width="30px" height="30px" viewBox="0 0 30 30" version="1.1" xmlns="http://www.w3.org/2000/svg" xmlns:xlink="http://www.w3.org/1999/xlink">
    <!-- Generator: Sketch 41 (35326) - http://www.bohemiancoding.com/sketch -->
    <title>Close Icon</title>
    <desc>Created with Sketch.</desc>
    <defs></defs>
    <g id="Images-And-Media-Module" stroke="none" stroke-width="1" fill="none" fill-rule="evenodd">
        <g id="UI:-Lightbox---1280PX" transform="translate(-1066.000000, -48.000000)" fill="#00b9e3">
            <g id="Close-Icon">
                <polygon points="1080.52474 60.2132768 1081.51523 60.2132768 1069.79719 48.495242 1069.30583 48.0038842 1068.81062 48.4913579 1066.50307 50.7628539 1066 51.2580651 1066.49916 51.7572219 1078.21719 63.4752568 1078.21719 62.4847728 1066.49916 74.2028077 1066.00391 74.6980497 1066.49916 75.1932916 1068.80671 77.5008431 1069.30195 77.9960851 1069.79719 77.5008431 1081.51523 65.7828083 1080.52474 65.7828083 1092.24278 77.5008431 1092.74193 78 1093.23715 77.4969283 1095.50864 75.1893769 1095.99612 74.6941655 1095.50476 74.2028077 1083.78672 62.4847728 1083.78672 63.4752568 1095.50476 51.7572219 1096 51.26198 1095.50476 50.766738 1093.23326 48.495242 1092.73802 48 1092.24278 48.495242"></polygon>
            </g>
        </g>
    </g>
</svg>
