<?xml version="1.0" encoding="UTF-8"?>
<svg width="86px" height="83px" viewBox="0 0 86 83" version="1.1" xmlns="http://www.w3.org/2000/svg" xmlns:xlink="http://www.w3.org/1999/xlink">
    <!-- Generator: sketchtool 40.3 (33839) - http://www.bohemiancoding.com/sketch -->
    <title>3844AB72-2D28-43F7-B807-FEFD50A11A36</title>
    <desc>Created with sketchtool.</desc>
    <defs>
        <radialGradient cx="-45.2708333%" cy="-28.8809122%" fx="-45.2708333%" fy="-28.8809122%" r="193.357541%" id="radialGradient-1">
            <stop stop-color="#FFFFFF" stop-opacity="0.5" offset="0%"></stop>
            <stop stop-color="#F2F2F2" offset="100%"></stop>
        </radialGradient>
        <rect id="path-2" x="0" y="0" width="225" height="185" rx="3"></rect>
        <mask id="mask-3" maskContentUnits="userSpaceOnUse" maskUnits="objectBoundingBox" x="0" y="0" width="225" height="185" fill="white">
            <use xlink:href="#path-2"></use>
        </mask>
    </defs>
    <g id="Symbols" stroke="none" stroke-width="1" fill="none" fill-rule="evenodd">
        <g id="Carousel-Item:-End-of-Cycle" transform="translate(-72.000000, -30.000000)">
            <g id="Carousel-Item:-Sport---Non-Active" fill-opacity="0.5">
                <g id="Item-BG">
                    <use fill="#FFFFFF" xlink:href="#path-2"></use>
                    <use stroke="#CCCCCC" mask="url(#mask-3)" stroke-width="2" fill="url(#radialGradient-1)" xlink:href="#path-2"></use>
                </g>
            </g>
            <g id="noun_140631_cc" transform="translate(72.000000, 30.000000)">
                <g id="Group">
                    <g id="Shape">
                        <path d="M69.7542135,75.6571192 C64.3905888,74.8824004 60.2422753,70.3152624 60.2422753,64.7601556 C60.2422753,61.8078181 61.3972078,59.031325 63.4918777,56.9412428 C64.1111445,56.3242444 64.1111445,55.3231645 63.4918777,54.7077086 C62.8726109,54.0907102 61.8693985,54.0907102 61.250132,54.7077086 C58.5547731,57.3947367 57.0716292,60.9640726 57.0716292,64.7601556 C57.0716292,72.058283 62.6398056,78.0186807 69.7542135,78.8161512 L69.7542135,82.1348315 L76.0955056,77.3962835 L69.7542135,72.6577355 L69.7542135,75.6571192 L69.7542135,75.6571192 Z" fill="#44B224"></path>
                        <path d="M72.9248596,53.863192 C78.2884842,54.6379108 82.4367978,59.2050487 82.4367978,64.7601556 C82.4367978,67.712493 81.2818652,70.4889861 79.1871953,72.5790684 C78.5679285,73.1960668 78.5679285,74.1971467 79.1871953,74.8126025 C79.8064621,75.429601 80.8096745,75.429601 81.428941,74.8126025 C84.1242999,72.1255745 85.6074438,68.5562386 85.6074438,64.7601556 C85.6074438,57.4620282 80.0392674,51.5016304 72.9248596,50.70416 L72.9248596,47.3854797 L66.5835674,52.1240277 L72.9248596,56.8625756 L72.9248596,53.863192 L72.9248596,53.863192 Z" fill="#44B224"></path>
                        <path d="M76.0955056,9.47709594 C76.0955056,7.73234015 74.6760299,6.31806396 72.9248596,6.31806396 L66.5835674,6.31806396 L66.5835674,4.73854797 C66.5835674,2.12575242 64.4499997,0 61.8275983,0 C59.2051969,0 57.0716292,2.12575242 57.0716292,4.73854797 L57.0716292,6.31806396 L53.9009831,6.31806396 L53.9009831,4.73854797 C53.9009831,2.12575242 51.7674155,0 49.145014,0 C46.5226126,0 44.3890449,2.12575242 44.3890449,4.73854797 L44.3890449,6.31806396 L31.7064607,6.31806396 L31.7064607,4.73854797 C31.7064607,2.12575242 29.572893,0 26.9504916,0 C24.3280902,0 22.1945225,2.12575242 22.1945225,4.73854797 L22.1945225,6.31806396 L19.0238764,6.31806396 L19.0238764,4.73854797 C19.0238764,2.12575242 16.8903087,0 14.2679073,0 C11.6455059,0 9.5119382,2.12575242 9.5119382,4.73854797 L9.5119382,6.31806396 L3.17064607,6.31806396 C1.41966914,6.31806396 0,7.73234015 0,9.47709594 L0,69.4987035 C0,71.2432666 1.41966914,72.6577355 3.17064607,72.6577355 L45.9739808,72.6577355 L45.974368,72.6577355 C46.8498563,72.6577355 47.559691,71.9505009 47.559691,71.0782195 C47.559691,70.2061308 46.85005,69.4990893 45.9747551,69.4987035 L3.17064607,69.4987035 L3.17064607,22.1132239 L72.9248596,22.1132239 L72.9248596,39.4886709 L72.925053,39.4886709 C72.9254401,40.3607599 73.6348877,41.0674157 74.5101826,41.0674157 C75.3856709,41.0674157 76.0955056,40.3601811 76.0955056,39.4878997 L76.0953122,39.4871286 L76.0955056,39.4871286 L76.0955056,9.47709594 L76.0955056,9.47709594 Z M60.2422753,4.73854797 C60.2422753,3.86626658 60.95211,3.15903198 61.8275983,3.15903198 C62.7032803,3.15903198 63.4129213,3.86626658 63.4129213,4.73854797 L63.4129213,12.6361279 L60.2422753,12.6361279 L60.2422753,4.73854797 L60.2422753,4.73854797 Z M47.559691,4.73854797 C47.559691,3.86626658 48.2695257,3.15903198 49.145014,3.15903198 C50.0206961,3.15903198 50.7303371,3.86626658 50.7303371,4.73854797 L50.7303371,12.6361279 L47.559691,12.6361279 L47.559691,4.73854797 L47.559691,4.73854797 Z M25.3651685,4.73854797 C25.3651685,3.86626658 26.0750033,3.15903198 26.9504916,3.15903198 C27.8261736,3.15903198 28.5358146,3.86626658 28.5358146,4.73854797 L28.5358146,12.6361279 L25.3651685,12.6361279 L25.3651685,4.73854797 L25.3651685,4.73854797 Z M12.6825843,4.73854797 C12.6825843,3.86626658 13.392419,3.15903198 14.2679073,3.15903198 C15.1435893,3.15903198 15.8532303,3.86626658 15.8532303,4.73854797 L15.8532303,12.6361279 L12.6825843,12.6361279 L12.6825843,4.73854797 L12.6825843,4.73854797 Z M3.17064607,18.9541919 L3.17064607,9.47709594 L9.5119382,9.47709594 L9.5119382,12.6361279 C9.5119382,14.380691 10.9316073,15.7951599 12.6825843,15.7951599 L15.8532303,15.7951599 C17.6044007,15.7951599 19.0238764,14.380691 19.0238764,12.6361279 L19.0238764,9.47709594 L22.1945225,9.47709594 L22.1945225,12.6361279 C22.1945225,14.380691 23.6141916,15.7951599 25.3651685,15.7951599 L28.5358146,15.7951599 C30.2869849,15.7951599 31.7064607,14.380691 31.7064607,12.6361279 L31.7064607,9.47709594 L44.3890449,9.47709594 L44.3890449,12.6361279 C44.3890449,14.380691 45.8087141,15.7951599 47.559691,15.7951599 L50.7303371,15.7951599 C52.4815074,15.7951599 53.9009831,14.380691 53.9009831,12.6361279 L53.9009831,9.47709594 L57.0716292,9.47709594 L57.0716292,12.6361279 C57.0716292,14.380691 58.4912984,15.7951599 60.2422753,15.7951599 L63.4129213,15.7951599 C65.1640917,15.7951599 66.5835674,14.380691 66.5835674,12.6361279 L66.5835674,9.47709594 L72.9248596,9.47709594 L72.9248596,18.9541919 L3.17064607,18.9541919 L3.17064607,18.9541919 Z" fill="#999999"></path>
                        <path d="M61.8275983,31.5903198 L14.2679073,31.5903198 C13.392419,31.5903198 12.6825843,32.2973614 12.6825843,33.1698358 L12.6825843,58.4420916 C12.6825843,59.314373 13.392419,60.0216076 14.2679073,60.0216076 L45.974368,60.0216076 C46.85005,60.0216076 47.559691,59.314373 47.559691,58.4420916 L47.559691,47.3854797 L61.8275983,47.3854797 C62.7032803,47.3854797 63.4129213,46.6782451 63.4129213,45.8059637 L63.4129213,33.1698358 C63.4129213,32.2975544 62.7032803,31.5903198 61.8275983,31.5903198 L61.8275983,31.5903198 Z M17.9030036,37.4456348 C17.2837367,36.8286364 17.2837367,35.8290988 17.9030036,35.2121007 C18.5222704,34.5951026 19.5254828,34.5951022 20.1447493,35.2121007 L22.1945225,37.2543656 L24.2442957,35.2121007 C24.8635625,34.5951022 25.8667749,34.5951022 26.4860414,35.2121007 C27.1053079,35.8290991 27.1053082,36.8286367 26.4860414,37.4456348 L24.4362682,39.4878997 L26.4860414,41.5301646 C27.1053082,42.1471631 27.1053082,43.1467007 26.4860414,43.7636988 C25.8667746,44.3806969 24.8635622,44.3806972 24.2442957,43.7636988 L22.1945225,41.7214339 L20.1447493,43.7636988 C19.5254824,44.3806972 18.5222701,44.3806972 17.9030036,43.7636988 C17.2837371,43.1467004 17.2837367,42.1471628 17.9030036,41.5301646 L19.9527768,39.4878997 L17.9030036,37.4456348 L17.9030036,37.4456348 Z M28.5358146,56.8625756 L15.8532303,56.8625756 L15.8532303,47.3854797 L28.5358146,47.3854797 L28.5358146,56.8625756 L28.5358146,56.8625756 Z M44.3890449,56.8625756 L31.7064607,56.8625756 L31.7064607,47.3854797 L44.3890449,47.3854797 L44.3890449,56.8625756 L44.3890449,56.8625756 Z M44.3890449,44.2264477 L31.7064607,44.2264477 L31.7064607,34.7493518 L44.3890449,34.7493518 L44.3890449,44.2264477 L44.3890449,44.2264477 Z M60.2422753,44.2264477 L47.559691,44.2264477 L47.559691,34.7493518 L60.2422753,34.7493518 L60.2422753,44.2264477 L60.2422753,44.2264477 Z" fill="#CCCCCC"></path>
                    </g>
                </g>
            </g>
        </g>
    </g>
</svg>