<svg id="Layer_1" data-name="Layer 1" xmlns="http://www.w3.org/2000/svg" xmlns:xlink="http://www.w3.org/1999/xlink" viewBox="0 0 92 63"><defs><style>.cls-1,.cls-2,.cls-26,.cls-35{fill:none;}.cls-1{clip-rule:evenodd;}.cls-3{clip-path:url(#clip-path);}.cls-4{isolation:isolate;}.cls-5{clip-path:url(#clip-path-2);}.cls-6{clip-path:url(#clip-path-3);}.cls-7{clip-path:url(#clip-path-4);}.cls-8{fill:#989898;opacity:0.99;}.cls-9{clip-path:url(#clip-path-5);}.cls-10{fill:#cfd0d0;}.cls-11{clip-path:url(#clip-path-7);}.cls-12{clip-path:url(#clip-path-9);}.cls-13{clip-path:url(#clip-path-11);}.cls-14{fill:#e1e2e1;}.cls-15{clip-path:url(#clip-path-13);}.cls-16{clip-path:url(#clip-path-15);}.cls-17{clip-path:url(#clip-path-17);}.cls-18{clip-path:url(#clip-path-19);}.cls-19{clip-path:url(#clip-path-21);}.cls-20{fill:#d8d9d8;}.cls-21{clip-path:url(#clip-path-23);}.cls-22{fill:#fff;}.cls-23{clip-path:url(#clip-path-25);}.cls-24{clip-path:url(#clip-path-27);}.cls-25{clip-path:url(#clip-path-29);}.cls-26{stroke:#ccc;stroke-width:2px;}.cls-26,.cls-35{stroke-miterlimit:10;}.cls-27{clip-path:url(#clip-path-31);}.cls-28{clip-path:url(#clip-path-33);}.cls-29{fill:#f3f3f3;}.cls-30{clip-path:url(#clip-path-35);}.cls-31{clip-path:url(#clip-path-37);}.cls-32{clip-path:url(#clip-path-39);}.cls-33{clip-path:url(#clip-path-41);}.cls-34{clip-path:url(#clip-path-43);}.cls-35{stroke:#e1e2e1;}.cls-36{clip-path:url(#clip-path-45);}.cls-37{clip-path:url(#clip-path-47);}.cls-38{clip-path:url(#clip-path-49);}.cls-39{clip-path:url(#clip-path-51);}.cls-40{clip-path:url(#clip-path-53);}.cls-41{clip-path:url(#clip-path-55);}.cls-42{clip-path:url(#clip-path-57);}.cls-43{clip-path:url(#clip-path-59);}.cls-44{clip-path:url(#clip-path-61);}.cls-45{fill:#46b249;}.cls-46{clip-path:url(#clip-path-62);}</style><clipPath id="clip-path"><path class="cls-1" d="M82,29.68V49a7,7,0,0,1-7,7H60.5A17.5,17.5,0,0,1,82,29.68Zm0,0V7a7,7,0,0,0-7-7H7A7,7,0,0,0,0,7V49a7,7,0,0,0,7,7H60.5A17.5,17.5,0,1,0,82,29.68Z"/></clipPath><clipPath id="clip-path-2"><rect class="cls-2" width="82" height="56"/></clipPath><clipPath id="clip-path-3"><path class="cls-1" d="M78.49,6.5V48.88a3.5,3.5,0,0,1-3.5,3.5H7a3.5,3.5,0,0,1-3.5-3.5V6.5A3.5,3.5,0,0,1,7,3H75A3.5,3.5,0,0,1,78.49,6.5Zm-78,0V48.88A6.51,6.51,0,0,0,7,55.38H75a6.51,6.51,0,0,0,6.5-6.5V6.5A6.51,6.51,0,0,0,75,0H7A6.51,6.51,0,0,0,.49,6.5Z"/></clipPath><clipPath id="clip-path-4"><rect class="cls-2" width="89" height="63"/></clipPath><clipPath id="clip-path-5"><circle class="cls-2" cx="9.63" cy="8.5" r="1.5"/></clipPath><clipPath id="clip-path-7"><circle class="cls-2" cx="16.63" cy="8.5" r="1.5"/></clipPath><clipPath id="clip-path-9"><circle class="cls-2" cx="23.63" cy="8.5" r="1.5"/></clipPath><clipPath id="clip-path-11"><path class="cls-1" d="M9.63,18.66H72.49c.83,0,1.5-.11,1.5-.25s-.67-.25-1.5-.25H9.63c-.83,0-1.5.11-1.5.25S8.8,18.66,9.63,18.66Z"/></clipPath><clipPath id="clip-path-13"><rect class="cls-2" x="8" y="14.16" width="24" height="3"/></clipPath><clipPath id="clip-path-15"><rect class="cls-2" x="68" y="14.16" width="6" height="3"/></clipPath><clipPath id="clip-path-17"><rect class="cls-2" x="61" y="14.16" width="6" height="3"/></clipPath><clipPath id="clip-path-19"><rect class="cls-2" x="54" y="14.16" width="6" height="3"/></clipPath><clipPath id="clip-path-21"><rect class="cls-2" x="7" y="29" width="6" height="13"/></clipPath><clipPath id="clip-path-23"><path class="cls-1" d="M10.5,37.32a.3.3,0,0,0,.42-.42l-1.2-1.2,1.2-1.2a.3.3,0,0,0-.42-.42L9.09,35.49a.3.3,0,0,0,0,.42Z"/></clipPath><clipPath id="clip-path-25"><rect class="cls-2" x="69" y="29" width="6" height="13"/></clipPath><clipPath id="clip-path-27"><path class="cls-1" d="M71.5,34.08a.3.3,0,0,0-.42.42l1.2,1.2-1.2,1.2a.3.3,0,0,0,.42.42l1.41-1.41a.3.3,0,0,0,0-.42Z"/></clipPath><clipPath id="clip-path-29"><path class="cls-1" d="M14,25a2,2,0,0,1,2-2H42a2,2,0,0,1,2,2V46a2,2,0,0,1-2,2H16a2,2,0,0,1-2-2Z"/></clipPath><clipPath id="clip-path-31"><path class="cls-1" d="M8.59,17.16H27.67c.25,0,.46-.67.46-1.5s-.2-1.5-.46-1.5H8.59c-.25,0-.46.67-.46,1.5S8.33,17.16,8.59,17.16Z"/></clipPath><clipPath id="clip-path-33"><rect class="cls-2" x="17" y="25" width="24" height="3"/></clipPath><clipPath id="clip-path-35"><rect class="cls-2" x="17" y="37" width="24" height="3"/></clipPath><clipPath id="clip-path-37"><rect class="cls-2" x="17" y="29" width="24" height="7"/></clipPath><clipPath id="clip-path-39"><rect class="cls-2" x="27" y="42" width="12" height="3"/></clipPath><clipPath id="clip-path-41"><rect class="cls-2" x="19" y="42" width="7" height="3"/></clipPath><clipPath id="clip-path-43"><rect class="cls-2" x="17" y="41" width="24" height="5" rx="0.5" ry="0.5"/></clipPath><clipPath id="clip-path-45"><path class="cls-1" d="M45,25a2,2,0,0,1,2-2H73a2,2,0,0,1,2,2V46a2,2,0,0,1-2,2H47a2,2,0,0,1-2-2Z"/></clipPath><clipPath id="clip-path-47"><path class="cls-1" d="M39.59,17.16H58.67c.25,0,.46-.67.46-1.5s-.2-1.5-.46-1.5H39.59c-.25,0-.46.67-.46,1.5S39.33,17.16,39.59,17.16Z"/></clipPath><clipPath id="clip-path-49"><rect class="cls-2" x="48" y="25" width="24" height="3"/></clipPath><clipPath id="clip-path-51"><rect class="cls-2" x="48" y="37" width="24" height="3"/></clipPath><clipPath id="clip-path-53"><rect class="cls-2" x="48" y="29" width="24" height="7"/></clipPath><clipPath id="clip-path-55"><rect class="cls-2" x="58" y="42" width="12" height="3"/></clipPath><clipPath id="clip-path-57"><rect class="cls-2" x="50" y="42" width="7" height="3"/></clipPath><clipPath id="clip-path-59"><rect class="cls-2" x="48" y="41" width="24" height="5" rx="0.5" ry="0.5"/></clipPath><clipPath id="clip-path-61"><path class="cls-1" d="M72.75,56.66a11,11,0,0,1-6.26-18.72,1.58,1.58,0,1,0-2.24-2.23,14.15,14.15,0,0,0,8.5,24.11v3.32L79.1,58.4l-6.34-4.74Z"/></clipPath><clipPath id="clip-path-62"><path class="cls-1" d="M75.92,34.86a11,11,0,0,1,6.26,18.72,1.58,1.58,0,0,0,2.24,2.23,14.15,14.15,0,0,0-8.5-24.11V28.39l-6.34,4.74,6.34,4.74Z"/></clipPath></defs><title> Event Slider</title><g class="cls-3"><g class="cls-4"><g class="cls-5"><g class="cls-6"><g class="cls-7"><rect class="cls-8" x="-4.51" y="-5" width="91.01" height="65.38"/></g></g><g class="cls-9"><g class="cls-7"><rect class="cls-10" x="3.13" y="2" width="13" height="13"/></g></g><g class="cls-11"><g class="cls-7"><rect class="cls-10" x="10.13" y="2" width="13" height="13"/></g></g><g class="cls-12"><g class="cls-7"><rect class="cls-10" x="17.13" y="2" width="13" height="13"/></g></g><g class="cls-13"><g class="cls-7"><rect class="cls-14" x="3.13" y="13.16" width="75.86" height="10.5"/></g></g><g class="cls-15"><g class="cls-7"><rect class="cls-10" x="3" y="9.16" width="34" height="13"/></g></g><g class="cls-16"><g class="cls-7"><rect class="cls-10" x="63" y="9.16" width="16" height="13"/></g></g><g class="cls-17"><g class="cls-7"><rect class="cls-10" x="56" y="9.16" width="16" height="13"/></g></g><g class="cls-18"><g class="cls-7"><rect class="cls-10" x="49" y="9.16" width="16" height="13"/></g></g><g class="cls-19"><g class="cls-7"><rect class="cls-20" x="2" y="24" width="16" height="23"/></g></g><g class="cls-21"><g class="cls-7"><rect class="cls-22" x="4" y="29" width="12" height="13.4"/></g></g><g class="cls-23"><g class="cls-7"><rect class="cls-20" x="64" y="24" width="16" height="23"/></g></g><g class="cls-24"><g class="cls-7"><rect class="cls-22" x="66" y="29" width="12" height="13.4"/></g></g><g class="cls-25"><g class="cls-7"><path class="cls-26" d="M14,25a2,2,0,0,1,2-2H42a2,2,0,0,1,2,2V46a2,2,0,0,1-2,2H16a2,2,0,0,1-2-2Z"/></g></g><g class="cls-27"><g class="cls-7"><rect class="cls-10" x="3.13" y="9.16" width="30" height="13"/></g></g><g class="cls-28"><g class="cls-7"><rect class="cls-29" x="12" y="20" width="34" height="13"/></g></g><g class="cls-30"><g class="cls-7"><rect class="cls-29" x="12" y="32" width="34" height="13"/></g></g><g class="cls-31"><g class="cls-7"><rect class="cls-29" x="12" y="24" width="34" height="17"/></g></g><g class="cls-32"><g class="cls-7"><rect class="cls-29" x="22" y="37" width="22" height="13"/></g></g><g class="cls-33"><g class="cls-7"><rect class="cls-29" x="14" y="37" width="17" height="13"/></g></g><g class="cls-34"><g class="cls-7"><rect class="cls-35" x="17" y="41" width="24" height="5" rx="0.5" ry="0.5"/></g></g><g class="cls-36"><g class="cls-7"><path class="cls-26" d="M45,25a2,2,0,0,1,2-2H73a2,2,0,0,1,2,2V46a2,2,0,0,1-2,2H47a2,2,0,0,1-2-2Z"/></g></g><g class="cls-37"><g class="cls-7"><rect class="cls-10" x="34.13" y="9.16" width="30" height="13"/></g></g><g class="cls-38"><g class="cls-7"><rect class="cls-29" x="43" y="20" width="34" height="13"/></g></g><g class="cls-39"><g class="cls-7"><rect class="cls-29" x="43" y="32" width="34" height="13"/></g></g><g class="cls-40"><g class="cls-7"><rect class="cls-29" x="43" y="24" width="34" height="17"/></g></g><g class="cls-41"><g class="cls-7"><rect class="cls-29" x="53" y="37" width="22" height="13"/></g></g><g class="cls-42"><g class="cls-7"><rect class="cls-29" x="45" y="37" width="17" height="13"/></g></g><g class="cls-43"><g class="cls-7"><rect class="cls-35" x="48" y="41" width="24" height="5" rx="0.5" ry="0.5"/></g></g></g></g></g><g class="cls-44"><rect class="cls-45" x="55.07" y="30.24" width="29.02" height="37.89"/></g><g class="cls-46"><rect class="cls-45" x="64.58" y="23.39" width="29.02" height="37.89"/></g></svg>