<?xml version="1.0" encoding="utf-8"?>
<!-- Generator: Adobe Illustrator 20.1.0, SVG Export Plug-In . SVG Version: 6.00 Build 0)  -->
<svg version="1.1" id="Layer_1" xmlns="http://www.w3.org/2000/svg" xmlns:xlink="http://www.w3.org/1999/xlink" x="0px" y="0px"
	 viewBox="0 0 299.4 27.7" style="enable-background:new 0 0 299.4 27.7;" xml:space="preserve">
<style type="text/css">
	.st0{fill:#020202;}
</style>
<g>
	<path class="st0" d="M44.6,4.5V10h7.5V14h-7.5v8.5h-5.1V0.6h14.1v3.9H44.6z"/>
	<path class="st0" d="M61.7,6.7c1.2,0,2.3,0.2,3.2,0.6c1,0.4,1.8,0.9,2.5,1.6s1.2,1.5,1.6,2.5c0.4,1,0.6,2.1,0.6,3.3
		c0,1.2-0.2,2.4-0.6,3.4s-0.9,1.8-1.6,2.5c-0.7,0.7-1.5,1.2-2.5,1.6c-1,0.4-2,0.6-3.2,0.6c-1.2,0-2.3-0.2-3.2-0.6
		c-1-0.4-1.8-0.9-2.5-1.6c-0.7-0.7-1.2-1.5-1.6-2.5s-0.6-2.1-0.6-3.4c0-1.2,0.2-2.3,0.6-3.3c0.4-1,0.9-1.8,1.6-2.5s1.5-1.2,2.5-1.6
		C59.5,6.8,60.6,6.7,61.7,6.7z M61.7,19.2c1.1,0,1.9-0.4,2.4-1.1c0.5-0.8,0.8-1.9,0.8-3.4c0-1.5-0.3-2.7-0.8-3.4s-1.3-1.1-2.4-1.1
		c-1.1,0-1.9,0.4-2.4,1.1s-0.8,1.9-0.8,3.4c0,1.5,0.3,2.7,0.8,3.4C59.8,18.9,60.6,19.2,61.7,19.2z"/>
	<path class="st0" d="M79.2,6.7c1.2,0,2.3,0.2,3.2,0.6c1,0.4,1.8,0.9,2.5,1.6s1.2,1.5,1.6,2.5c0.4,1,0.6,2.1,0.6,3.3
		c0,1.2-0.2,2.4-0.6,3.4s-0.9,1.8-1.6,2.5c-0.7,0.7-1.5,1.2-2.5,1.6c-1,0.4-2,0.6-3.2,0.6c-1.2,0-2.3-0.2-3.2-0.6
		c-1-0.4-1.8-0.9-2.5-1.6c-0.7-0.7-1.2-1.5-1.6-2.5s-0.6-2.1-0.6-3.4c0-1.2,0.2-2.3,0.6-3.3c0.4-1,0.9-1.8,1.6-2.5s1.5-1.2,2.5-1.6
		C76.9,6.8,78,6.7,79.2,6.7z M79.2,19.2c1.1,0,1.9-0.4,2.4-1.1c0.5-0.8,0.8-1.9,0.8-3.4c0-1.5-0.3-2.7-0.8-3.4s-1.3-1.1-2.4-1.1
		c-1.1,0-1.9,0.4-2.4,1.1S76,13.1,76,14.7c0,1.5,0.3,2.7,0.8,3.4C77.3,18.9,78.1,19.2,79.2,19.2z"/>
	<path class="st0" d="M94.7,22.7c-0.7,0-1.4-0.1-2-0.3s-1-0.5-1.4-0.9s-0.7-0.9-0.9-1.4c-0.2-0.6-0.3-1.2-0.3-1.9v-8h-1.3
		c-0.2,0-0.4-0.1-0.6-0.2c-0.2-0.2-0.3-0.4-0.3-0.7V7.4l2.5-0.5l0.9-3.8c0.1-0.5,0.5-0.7,1-0.7h2.4v4.5h3.9v3.2h-3.9v7.7
		c0,0.4,0.1,0.7,0.3,0.9c0.2,0.2,0.4,0.4,0.8,0.4c0.2,0,0.3,0,0.4-0.1c0.1,0,0.2-0.1,0.3-0.1s0.2-0.1,0.2-0.1s0.2-0.1,0.3-0.1
		c0.1,0,0.3,0,0.3,0.1c0.1,0.1,0.2,0.2,0.3,0.3l1.4,2.2c-0.6,0.4-1.3,0.8-2,1C96.3,22.6,95.5,22.7,94.7,22.7z"/>
	<path class="st0" d="M105.3,8.6c0.6-0.6,1.3-1,2-1.4c0.7-0.3,1.5-0.5,2.4-0.5s1.7,0.2,2.4,0.5c0.7,0.4,1.3,0.9,1.8,1.5
		c0.5,0.7,0.9,1.5,1.2,2.4s0.4,2,0.4,3.1c0,1.3-0.2,2.4-0.5,3.4c-0.3,1-0.8,1.9-1.4,2.6c-0.6,0.7-1.3,1.3-2.1,1.7
		c-0.8,0.4-1.7,0.6-2.7,0.6c-0.5,0-0.9,0-1.3-0.1s-0.7-0.2-1-0.4c-0.3-0.2-0.6-0.4-0.8-0.6c-0.3-0.2-0.5-0.5-0.7-0.8l-0.2,0.8
		c-0.1,0.3-0.2,0.5-0.4,0.7c-0.2,0.1-0.4,0.2-0.7,0.2h-3.1V0h4.7V8.6z M105.3,18.2c0.3,0.4,0.7,0.6,1.1,0.8s0.8,0.2,1.2,0.2
		c0.4,0,0.8-0.1,1.2-0.2c0.4-0.2,0.7-0.4,1-0.8c0.3-0.4,0.5-0.9,0.6-1.5c0.1-0.6,0.2-1.4,0.2-2.3c0-0.8-0.1-1.4-0.2-2
		c-0.1-0.5-0.3-1-0.5-1.3c-0.2-0.3-0.5-0.6-0.8-0.8s-0.7-0.2-1.1-0.2c-0.6,0-1.1,0.1-1.5,0.4c-0.4,0.2-0.8,0.6-1.2,1.1V18.2z"/>
	<path class="st0" d="M117.5,9.1c0.9-0.8,2-1.4,3.1-1.9c1.1-0.4,2.4-0.6,3.7-0.6c0.9,0,1.8,0.2,2.5,0.5s1.4,0.7,1.9,1.3
		c0.5,0.5,0.9,1.2,1.2,1.9c0.3,0.8,0.4,1.6,0.4,2.5v9.7h-2.1c-0.4,0-0.8-0.1-1-0.2c-0.2-0.1-0.4-0.4-0.6-0.8l-0.3-0.9
		c-0.4,0.3-0.8,0.6-1.1,0.9c-0.4,0.2-0.7,0.5-1.1,0.6s-0.8,0.3-1.2,0.4c-0.4,0.1-0.9,0.1-1.4,0.1c-0.7,0-1.4-0.1-1.9-0.3
		s-1.1-0.5-1.5-0.8s-0.7-0.8-0.9-1.3c-0.2-0.5-0.3-1.2-0.3-1.9c0-0.6,0.1-1.1,0.4-1.7s0.8-1.1,1.5-1.6c0.7-0.5,1.6-0.9,2.8-1.2
		c1.2-0.3,2.6-0.5,4.4-0.5v-0.7c0-0.9-0.2-1.6-0.6-2c-0.4-0.4-0.9-0.6-1.6-0.6c-0.5,0-1,0.1-1.3,0.2c-0.4,0.1-0.7,0.3-0.9,0.4
		c-0.3,0.1-0.5,0.3-0.8,0.4s-0.6,0.2-0.9,0.2c-0.3,0-0.6-0.1-0.8-0.2c-0.2-0.2-0.4-0.3-0.5-0.6L117.5,9.1z M125.9,16.1
		c-0.9,0-1.7,0.1-2.3,0.2c-0.6,0.1-1.1,0.3-1.4,0.4c-0.4,0.2-0.6,0.4-0.7,0.6s-0.2,0.5-0.2,0.8c0,0.5,0.1,0.9,0.4,1.1
		c0.3,0.2,0.7,0.3,1.3,0.3c0.6,0,1.1-0.1,1.6-0.3c0.5-0.2,0.9-0.5,1.4-1V16.1z"/>
	<path class="st0" d="M138,0v22.5h-4.7V0H138z"/>
	<path class="st0" d="M145.8,0v22.5h-4.6V0H145.8z"/>
	<path class="st0" d="M175.4,11.8c0,1.6-0.2,3.1-0.7,4.4c-0.5,1.3-1.2,2.4-2.1,3.3c-0.9,0.9-2,1.6-3.2,2.1s-2.6,0.7-4.1,0.7h-7.8
		V1.2h7.8c1.5,0,2.9,0.2,4.1,0.7c1.2,0.5,2.3,1.2,3.2,2.1s1.6,2,2.1,3.3C175.1,8.7,175.4,10.2,175.4,11.8z M173.8,11.8
		c0-1.5-0.2-2.8-0.6-4c-0.4-1.2-1-2.1-1.7-2.9c-0.8-0.8-1.7-1.4-2.7-1.8s-2.2-0.6-3.5-0.6H159v18.7h6.2c1.3,0,2.4-0.2,3.5-0.6
		s2-1,2.7-1.8c0.8-0.8,1.3-1.8,1.7-2.9C173.6,14.7,173.8,13.3,173.8,11.8z"/>
	<path class="st0" d="M179.9,14.4v0.3c0,1.1,0.1,2.1,0.4,3c0.3,0.9,0.6,1.6,1.1,2.1c0.5,0.6,1.1,1,1.7,1.3s1.4,0.4,2.3,0.4
		c0.8,0,1.4-0.1,2-0.2c0.5-0.2,1-0.4,1.4-0.6c0.4-0.2,0.7-0.4,0.9-0.6c0.2-0.2,0.4-0.2,0.5-0.2c0.1,0,0.2,0,0.3,0.1l0.4,0.5
		c-0.2,0.3-0.6,0.6-1,0.8c-0.4,0.3-0.8,0.5-1.3,0.7c-0.5,0.2-1,0.3-1.6,0.4c-0.6,0.1-1.1,0.2-1.7,0.2c-1,0-2-0.2-2.8-0.5
		s-1.6-0.9-2.2-1.6c-0.6-0.7-1.1-1.5-1.4-2.5c-0.3-1-0.5-2.1-0.5-3.4c0-1.1,0.2-2.1,0.5-3c0.3-0.9,0.7-1.7,1.3-2.3
		c0.6-0.7,1.3-1.2,2.1-1.5s1.8-0.6,2.8-0.6c0.8,0,1.6,0.1,2.3,0.4c0.7,0.3,1.3,0.7,1.9,1.3c0.5,0.6,0.9,1.2,1.3,2
		c0.3,0.8,0.5,1.7,0.5,2.8c0,0.2,0,0.4-0.1,0.5c-0.1,0.1-0.2,0.1-0.3,0.1H179.9z M189.9,13.5c0-0.8-0.1-1.5-0.3-2.2
		c-0.2-0.6-0.5-1.2-1-1.6s-0.9-0.8-1.5-1c-0.6-0.2-1.2-0.4-1.9-0.4c-0.8,0-1.5,0.1-2.1,0.4c-0.6,0.2-1.1,0.6-1.6,1
		c-0.4,0.5-0.8,1-1.1,1.6c-0.3,0.6-0.5,1.3-0.5,2.1H189.9z"/>
	<path class="st0" d="M195.5,14.4v0.3c0,1.1,0.1,2.1,0.4,3c0.3,0.9,0.6,1.6,1.1,2.1c0.5,0.6,1.1,1,1.7,1.3s1.4,0.4,2.3,0.4
		c0.8,0,1.4-0.1,2-0.2c0.5-0.2,1-0.4,1.4-0.6c0.4-0.2,0.7-0.4,0.9-0.6c0.2-0.2,0.4-0.2,0.5-0.2c0.1,0,0.2,0,0.3,0.1l0.4,0.5
		c-0.2,0.3-0.6,0.6-1,0.8c-0.4,0.3-0.8,0.5-1.3,0.7c-0.5,0.2-1,0.3-1.6,0.4c-0.6,0.1-1.1,0.2-1.7,0.2c-1,0-2-0.2-2.8-0.5
		s-1.6-0.9-2.2-1.6c-0.6-0.7-1.1-1.5-1.4-2.5c-0.3-1-0.5-2.1-0.5-3.4c0-1.1,0.2-2.1,0.5-3c0.3-0.9,0.7-1.7,1.3-2.3
		c0.6-0.7,1.3-1.2,2.1-1.5s1.8-0.6,2.8-0.6c0.8,0,1.6,0.1,2.3,0.4c0.7,0.3,1.3,0.7,1.9,1.3c0.5,0.6,0.9,1.2,1.3,2
		c0.3,0.8,0.5,1.7,0.5,2.8c0,0.2,0,0.4-0.1,0.5c-0.1,0.1-0.2,0.1-0.3,0.1H195.5z M205.5,13.5c0-0.8-0.1-1.5-0.3-2.2
		c-0.2-0.6-0.5-1.2-1-1.6s-0.9-0.8-1.5-1c-0.6-0.2-1.2-0.4-1.9-0.4c-0.8,0-1.5,0.1-2.1,0.4c-0.6,0.2-1.1,0.6-1.6,1
		c-0.4,0.5-0.8,1-1.1,1.6c-0.3,0.6-0.5,1.3-0.5,2.1H205.5z"/>
	<path class="st0" d="M212.1,10.2c0.7-0.9,1.4-1.6,2.3-2.1c0.9-0.5,1.9-0.8,3-0.8c1.8,0,3.3,0.6,4.3,1.9c1,1.3,1.5,3.2,1.5,5.7
		c0,1.1-0.1,2.1-0.4,3.1c-0.3,0.9-0.7,1.8-1.3,2.5s-1.2,1.2-2,1.6s-1.7,0.6-2.8,0.6c-1,0-1.9-0.2-2.6-0.6c-0.7-0.4-1.4-0.9-1.9-1.6
		v7.3h-1.4V7.5h0.8c0.2,0,0.4,0.1,0.4,0.4L212.1,10.2z M212.1,19.2c0.3,0.4,0.6,0.8,0.9,1.1c0.3,0.3,0.6,0.5,1,0.7
		c0.4,0.2,0.7,0.3,1.1,0.4c0.4,0.1,0.8,0.1,1.3,0.1c0.9,0,1.7-0.2,2.3-0.5c0.7-0.3,1.2-0.8,1.7-1.4c0.4-0.6,0.8-1.3,1-2.1
		c0.2-0.8,0.3-1.7,0.3-2.7c0-2.2-0.4-3.9-1.2-4.9s-2-1.6-3.5-1.6c-1,0-1.9,0.3-2.7,0.8c-0.8,0.5-1.5,1.2-2.1,2.1V19.2z"/>
	<path class="st0" d="M253.9,11.8c0,1.6-0.2,3.1-0.7,4.4c-0.5,1.3-1.2,2.4-2.1,3.3c-0.9,0.9-2,1.6-3.2,2.1s-2.6,0.7-4.1,0.7H236V1.2
		h7.8c1.5,0,2.9,0.2,4.1,0.7c1.2,0.5,2.3,1.2,3.2,2.1s1.6,2,2.1,3.3C253.7,8.7,253.9,10.2,253.9,11.8z M252.3,11.8
		c0-1.5-0.2-2.8-0.6-4c-0.4-1.2-1-2.1-1.7-2.9c-0.8-0.8-1.7-1.4-2.7-1.8s-2.2-0.6-3.5-0.6h-6.2v18.7h6.2c1.3,0,2.4-0.2,3.5-0.6
		s2-1,2.7-1.8c0.8-0.8,1.3-1.8,1.7-2.9C252.1,14.7,252.3,13.3,252.3,11.8z"/>
	<path class="st0" d="M260,2.4c0,0.2,0,0.3-0.1,0.5s-0.2,0.3-0.3,0.4c-0.1,0.1-0.3,0.2-0.4,0.3c-0.2,0.1-0.3,0.1-0.5,0.1
		s-0.4,0-0.5-0.1c-0.2-0.1-0.3-0.2-0.4-0.3c-0.1-0.1-0.2-0.3-0.3-0.4c-0.1-0.2-0.1-0.3-0.1-0.5c0-0.2,0-0.4,0.1-0.5
		c0.1-0.2,0.2-0.3,0.3-0.4c0.1-0.1,0.3-0.2,0.4-0.3c0.2-0.1,0.3-0.1,0.5-0.1s0.3,0,0.5,0.1s0.3,0.2,0.4,0.3c0.1,0.1,0.2,0.3,0.3,0.4
		S260,2.2,260,2.4z M259.4,7.5v14.9H258V7.5H259.4z"/>
	<path class="st0" d="M276.5,7.5l-6.3,14.9h-1.3l-6.3-14.9h1.1c0.1,0,0.3,0,0.3,0.1s0.2,0.2,0.2,0.2l4.9,11.8
		c0.2,0.4,0.3,0.9,0.4,1.3c0.1-0.4,0.2-0.9,0.4-1.3l5-11.8c0-0.1,0.1-0.2,0.2-0.3c0.1-0.1,0.2-0.1,0.3-0.1H276.5z"/>
	<path class="st0" d="M279.7,14.4v0.3c0,1.1,0.1,2.1,0.4,3c0.3,0.9,0.6,1.6,1.1,2.1c0.5,0.6,1.1,1,1.7,1.3s1.4,0.4,2.3,0.4
		c0.8,0,1.4-0.1,2-0.2c0.5-0.2,1-0.4,1.4-0.6c0.4-0.2,0.7-0.4,0.9-0.6c0.2-0.2,0.4-0.2,0.5-0.2c0.1,0,0.2,0,0.3,0.1l0.4,0.5
		c-0.2,0.3-0.6,0.6-1,0.8c-0.4,0.3-0.8,0.5-1.3,0.7c-0.5,0.2-1,0.3-1.6,0.4c-0.6,0.1-1.1,0.2-1.7,0.2c-1,0-2-0.2-2.8-0.5
		s-1.6-0.9-2.2-1.6c-0.6-0.7-1.1-1.5-1.4-2.5c-0.3-1-0.5-2.1-0.5-3.4c0-1.1,0.2-2.1,0.5-3c0.3-0.9,0.7-1.7,1.3-2.3
		c0.6-0.7,1.3-1.2,2.1-1.5s1.8-0.6,2.8-0.6c0.8,0,1.6,0.1,2.3,0.4c0.7,0.3,1.3,0.7,1.9,1.3c0.5,0.6,0.9,1.2,1.3,2
		c0.3,0.8,0.5,1.7,0.5,2.8c0,0.2,0,0.4-0.1,0.5c-0.1,0.1-0.2,0.1-0.3,0.1H279.7z M289.6,13.5c0-0.8-0.1-1.5-0.3-2.2
		c-0.2-0.6-0.5-1.2-1-1.6s-0.9-0.8-1.5-1c-0.6-0.2-1.2-0.4-1.9-0.4c-0.8,0-1.5,0.1-2.1,0.4c-0.6,0.2-1.1,0.6-1.6,1
		c-0.4,0.5-0.8,1-1.1,1.6c-0.3,0.6-0.5,1.3-0.5,2.1H289.6z"/>
</g>
<g>
	<path class="st0" d="M293.5,0.5V0.2h2.3v0.3h-1V3h-0.4V0.5H293.5z"/>
	<path class="st0" d="M297.1,0.2l0.9,2.4l0.9-2.4h0.5V3H299V0.6h0L298.1,3h-0.3l-0.9-2.4h0V3h-0.4V0.2H297.1z"/>
</g>
<g>
	<path class="st0" d="M25,9.4c0.3-1.7,0.3-3.2,0.1-4.7c-0.3-1.4-0.8-2.5-1.6-3.3c-0.7-0.7-1.6-1.2-2.6-1.4c-1-0.2-2-0.3-2.8-0.3
		c-0.9,0-1.9,0.1-3,0.3c-1.1,0.2-2.2,0.5-3.3,0.9c-1.1,0.4-2.3,1-3.4,1.7C7.3,3.3,6.2,4.1,5.2,5.1c-1,1-1.8,2.1-2.5,3.3
		C2,9.6,1.4,10.8,1,12c-0.4,1.2-0.8,2.4-1,3.5c-0.2,1.1-0.3,2.2-0.3,3.1c0,1,0.2,1.9,0.5,2.7c0.3,0.8,0.7,1.4,1.2,1.9
		c0.7,0.6,1.5,1,2.5,1.2c1,0.2,1.9,0.3,2.7,0.3c0.9,0,2-0.1,3.1-0.3s2.3-0.5,3.4-0.9c1.2-0.4,2.3-1,3.5-1.7s2.2-1.6,3.3-2.6
		c1.4-1.5,2.6-3.1,3.5-4.8C24.2,12.8,24.7,11,25,9.4z M16.5,1c0.2,0,0.5-0.1,0.7-0.1c0.4,0,0.9-0.1,1.3-0.1c0.2,0,0.8,0.1,1.3,0.1
		c0.2,0,0.3,0.3,0.1,0.4c-0.1,0.1-0.3,0.1-0.4,0.2c-0.2,0.1-0.4,0.2-0.5,0.2c-0.4,0.2-0.8,0.2-1.1,0c-0.2-0.1-0.4-0.2-0.6-0.3
		c-0.2-0.1-0.5-0.2-0.7-0.2C16.2,1.2,16.3,1.1,16.5,1z M2.9,11.3c0.3-0.7,0.7-1.3,1.1-2c0.7-1.1,1.5-2.2,2.4-3.2
		C6.6,5.9,6.8,5.7,7,5.5C7.2,5.3,7.4,5.1,7.6,5c0.1-0.1,0.1-0.1,0.2-0.2C7.9,4.7,7.9,4.7,8,4.6c0.2-0.1,0.3-0.2,0.5-0.4
		C8.7,4.2,8.8,4.1,9,3.9c0.1-0.1,0.1-0.1,0.2-0.2c0.1-0.1,0.1-0.1,0.2-0.1C9.6,3.5,9.8,3.4,10,3.3c0.2-0.1,0.4-0.2,0.6-0.3
		c0,0,0.1,0,0.1-0.1c0,0,0.1,0,0.1-0.1c0.2-0.1,0.5-0.2,0.7-0.3c0.2-0.1,0.5-0.2,0.7-0.3c0.1,0,0.1-0.1,0.2-0.1c0.1,0,0.1,0,0.2-0.1
		l0,0c0.7-0.2,1.4-0.3,2.1-0.1C15,1.9,15.2,2,15.4,2c0.3,0.1,0.7,0.2,1,0.3c0.3,0.1,0.3,0.5,0.1,0.7c0,0-0.1,0.1-0.1,0.1
		c-0.2,0.2-0.5,0.4-0.7,0.4c-0.3,0-0.6-0.2-0.8-0.3c-0.4-0.1-0.7-0.2-1-0.2C13.3,3,13,3,13,3c-0.1,0-0.2,0.1-0.3,0.2
		c-0.1,0.1-0.1,0.2-0.1,0.3c0,0.1,0.1,0.2,0.2,0.3c0.1,0.1,0.2,0.1,0.3,0.1c0,0,0.2,0,0.5,0c0.2,0,0.4,0,0.6,0.1
		c0.2,0.1,0.3,0.4,0.1,0.5c-0.2,0.2-0.4,0.3-0.6,0.5c-0.2,0.2-0.5,0.4-0.7,0.6c-0.2,0.1-0.4,0.2-0.6,0.1c-0.5-0.2-0.9-0.3-1.3-0.4
		c-0.5,0-0.8,0-0.8,0c-0.1,0-0.2,0.1-0.3,0.2C9.9,5.6,9.8,5.7,9.8,5.8c0,0.1,0,0.2,0.1,0.3c0.1,0.1,0.2,0.1,0.3,0.1
		c0.4,0,0.8,0.1,1.1,0.1c0.2,0.1,0.3,0.3,0.1,0.5C11.4,7,11.2,7.1,11,7.3c-0.2,0.2-0.4,0.4-0.6,0.6C10.3,8,10.1,8.1,9.9,8
		C9.4,7.9,9.1,7.8,8.7,7.8c-0.4,0-0.6,0-0.7,0c-0.1,0-0.2,0.1-0.3,0.2C7.7,8,7.7,8.1,7.7,8.3c0,0.1,0.1,0.2,0.2,0.3
		C7.9,8.6,8,8.7,8.2,8.7c0.4,0,0.7,0,1,0.1c0.2,0,0.2,0.2,0.1,0.4C9,9.4,8.8,9.6,8.6,9.8c-0.2,0.2-0.3,0.4-0.5,0.6
		c-0.2,0.2-0.5,0.3-0.8,0.2c-0.3-0.1-0.6-0.1-0.9-0.1c-0.4,0-0.6,0-0.6,0c-0.1,0-0.2,0-0.3,0.1c-0.1,0.1-0.1,0.2-0.1,0.3
		c0,0.1,0.1,0.2,0.2,0.3c0.1,0.1,0.2,0.1,0.3,0.1c0,0,0.1,0,0.4,0c0,0,0,0,0.1,0c0.4,0,0.6,0.5,0.4,0.8c-0.1,0.1-0.2,0.3-0.3,0.4
		c-0.1,0.1-0.2,0.3-0.3,0.4c-0.2,0.3-0.6,0.4-1,0.3C4.8,13.2,4.4,13,4.1,13c-0.1,0-0.3-0.1-0.4-0.1C3,12.7,2.6,12,2.9,11.3z
		 M8.6,22.2c0,0.1-0.1,0.3-0.1,0.4c-0.1,0.4-0.5,0.7-0.9,0.7h0c-0.1,0-0.1,0-0.2,0s-0.1,0-0.2,0c-0.2,0-0.3,0-0.5,0
		c-0.2,0-0.3,0-0.5,0c0,0-0.1,0-0.1,0c0,0-0.1,0-0.1,0c0,0-0.1,0-0.1,0c0,0-0.1,0-0.1,0c0,0-0.1,0-0.1,0c0,0-0.1,0-0.1,0
		c-0.1,0-0.3,0-0.4,0c-0.1,0-0.3,0-0.4,0c0,0,0,0,0,0c0,0,0,0,0,0c-0.1,0-0.2,0-0.4-0.1c-0.1,0-0.2,0-0.4-0.1c0,0-0.1,0-0.1,0
		c0,0,0,0-0.1,0c-0.1,0-0.2-0.1-0.3-0.1c-0.1,0-0.2-0.1-0.3-0.1h0C3.2,23,3.1,23,3,22.9c-0.1,0-0.2-0.1-0.3-0.1c0,0-0.1,0-0.1-0.1
		c-0.3-0.2-0.4-0.5-0.2-0.8c0.3-0.6,0.7-1.4,1.1-2.4c0.3-0.6,0.6-1.2,1-1.9c0.1-0.2,0.1-0.5-0.1-0.7c-0.3-0.3-0.7-0.2-0.9,0.1
		C3.3,17.5,3,18,2.8,18.4C2.3,19.3,2,20,1.7,20.7c-0.1,0.2-0.3,0.1-0.4,0c-0.1-0.7-0.2-1.4-0.2-2.3c0-1.1,0.2-2.2,0.5-3.4
		c0-0.2,0.2-0.3,0.4-0.3c0,0,0.1,0,0.1,0c0.5,0,0.9,0,1.4,0.1c0.3,0.1,0.5,0.1,0.8,0.2c0.2,0.1,0.3,0.4,0.2,0.6
		c0,0.1-0.1,0.1-0.1,0.2c-0.1,0.2-0.1,0.5,0.1,0.7l0.1,0.1c0.2,0.2,0.6,0.1,0.7-0.1c0,0,0,0,0,0c0.2-0.4,0.8-0.5,1.2-0.2
		c0.6,0.5,1.1,1.1,1.5,1.8c0.6,1,0.8,2,0.8,3.2C8.7,21.5,8.7,21.9,8.6,22.2z M22.7,12.1c0,0.1-0.1,0.2-0.1,0.3c-0.3,0.7-0.6,1.3-1,2
		c-0.4,0.7-0.8,1.3-1.3,1.9c-0.5,0.6-1,1.2-1.6,1.8c-0.2,0.2-0.4,0.4-0.6,0.6c-0.2,0.2-0.5,0.4-0.7,0.6c-0.1,0.1-0.1,0.1-0.2,0.1
		c-0.1,0-0.1,0.1-0.2,0.1c-0.2,0.1-0.4,0.3-0.5,0.4c-0.2,0.1-0.4,0.2-0.5,0.3c-0.1,0.1-0.1,0.1-0.2,0.1c-0.1,0-0.1,0.1-0.2,0.1
		c-0.2,0.1-0.5,0.3-0.7,0.4c-0.2,0.1-0.5,0.3-0.7,0.4c0,0,0,0-0.1,0c0,0,0,0-0.1,0c-0.2,0.1-0.5,0.2-0.7,0.3
		c-0.2,0.1-0.5,0.2-0.7,0.3c-0.1,0-0.1,0.1-0.2,0.1c-0.1,0-0.2,0-0.2,0.1c-0.2,0.1-0.4,0.1-0.5,0.2c-0.1,0-0.2,0.1-0.4,0.1
		c-0.3,0.1-0.7-0.2-0.6-0.5c0,0,0-0.1,0-0.1c0-0.3,0-0.6,0-0.9c0-1.5-0.3-2.8-1-4.1c-0.6-1-1.3-1.8-2.1-2.5C7,14.3,7,13.7,7.3,13.4
		c0.1-0.1,0.1-0.2,0.2-0.3c0.1-0.2,0.3-0.4,0.5-0.6c0.2-0.2,0.5-0.2,0.7-0.1c0.1,0.1,0.2,0.2,0.3,0.3c0.2,0.2,0.4,0.6,0.6,0.9
		c0,0.1,0.1,0.1,0.2,0.2c0.1,0,0.1,0.1,0.2,0.1c0,0,0.1,0,0.1,0c0,0,0.1,0,0.1,0c0.1-0.1,0.2-0.1,0.2-0.3c0-0.1,0-0.2,0-0.3
		c-0.2-0.4-0.5-0.8-0.7-1.1C9.4,12,9.2,11.8,9,11.6c-0.2-0.1-0.2-0.4,0-0.5c0.2-0.2,0.4-0.5,0.6-0.7c0.2-0.3,0.5-0.5,0.7-0.8
		c0.1-0.1,0.3-0.1,0.4,0c0.1,0.1,0.3,0.3,0.4,0.4c0.2,0.2,0.4,0.5,0.6,0.9c0.1,0.1,0.1,0.2,0.2,0.2c0.1,0,0.1,0.1,0.2,0.1
		c0,0,0.1,0,0.1,0c0,0,0.1,0,0.1,0c0.1-0.1,0.2-0.1,0.2-0.3c0-0.1,0-0.2,0-0.3c-0.2-0.4-0.4-0.7-0.6-1c-0.1-0.1-0.2-0.2-0.3-0.4
		c-0.2-0.2-0.2-0.6,0-0.8c0.1-0.1,0.3-0.3,0.4-0.4c0.2-0.1,0.3-0.3,0.5-0.4c0.3-0.2,0.7-0.2,0.9,0.1c0,0,0.1,0.1,0.1,0.1
		c0.2,0.2,0.3,0.5,0.5,0.7c0.1,0.1,0.1,0.2,0.2,0.2c0.1,0,0.1,0.1,0.2,0.1c0,0,0.1,0,0.1,0c0,0,0.1,0,0.1,0c0.1-0.1,0.2-0.2,0.2-0.3
		c0-0.1,0-0.2,0-0.3c-0.2-0.3-0.3-0.6-0.5-0.8C14.1,7,14,6.9,13.9,6.8c-0.2-0.2-0.1-0.5,0.1-0.6c0.2-0.2,0.5-0.4,0.7-0.5
		c0.2-0.2,0.4-0.3,0.7-0.5C15.6,5,15.9,5,16.1,5.3c0,0,0.1,0.1,0.1,0.1c0.2,0.2,0.3,0.4,0.4,0.7c0,0.1,0.1,0.2,0.2,0.2
		c0.1,0,0.2,0.1,0.2,0.1c0,0,0.1,0,0.1,0c0,0,0.1,0,0.1,0c0.1-0.1,0.2-0.2,0.2-0.3c0-0.1,0-0.2,0-0.3C17.3,5.4,17.2,5.2,17,5
		c-0.1-0.1-0.2-0.2-0.3-0.3c-0.1-0.1-0.1-0.4,0.1-0.5c0.2-0.1,0.4-0.2,0.6-0.4l0,0c0.5-0.3,1.1-0.3,1.6,0c0.2,0.1,0.3,0.1,0.5,0
		l0.1,0c0.3-0.1,0.4-0.4,0.4-0.7c0-0.3,0.1-0.6,0.4-0.8c0.1,0,0.2-0.1,0.2-0.1c0.3-0.1,0.6-0.2,0.9-0.3c0.4-0.1,0.7,0,1,0.2
		c0.4,0.4,1,1.2,1.1,2.5c0.1,0.9,0.1,1.8,0.1,2.8c0,0.3-0.4,0.3-0.5,0.1C23,6.7,22.5,6,22,5.3c-0.4-0.5-0.7-0.9-1.1-1.3
		c-0.1-0.1-0.3-0.2-0.5-0.1l-0.1,0c-0.3,0.1-0.4,0.5-0.1,0.7c0,0,0,0,0,0c0.5,0.5,1,1.1,1.4,1.7c0.4,0.6,0.8,1.3,1.1,2
		c0,0.1,0.1,0.2,0.1,0.2C23.2,9.7,23.1,10.9,22.7,12.1z"/>
</g>
</svg>
