<?xml version="1.0" encoding="UTF-8" standalone="no"?>
<svg width="10px" height="11px" viewBox="0 0 10 11" version="1.1" xmlns="http://www.w3.org/2000/svg" xmlns:xlink="http://www.w3.org/1999/xlink">
    <!-- Generator: sketchtool 40.1 (33804) - http://www.bohemiancoding.com/sketch -->
    <title>9D5E0013-790E-40F2-8903-D24277E130A5</title>
    <desc>Created with sketchtool.</desc>
    <defs>
        <path d="M9.5,9 L9.5,3.49374104 C9.5,3.22563934 9.27614237,3 9,3 C8.73193359,3 8.5,3.22105539 8.5,3.49374104 L8.5,9 L3.50034732,9 C3.22900057,9 3,9.22385763 3,9.5 C3,9.76806641 3.22401312,10 3.50034732,10 L8.5,10 L8.5,15.506259 C8.5,15.7743607 8.72385763,16 9,16 C9.26806641,16 9.5,15.7789446 9.5,15.506259 L9.5,10 L14.4996527,10 C14.7709994,10 15,9.77614237 15,9.5 C15,9.23193359 14.7759869,9 14.4996527,9 L9.5,9 Z" id="path-1"></path>
        <mask id="mask-2" maskContentUnits="userSpaceOnUse" maskUnits="objectBoundingBox" x="-0.1" y="-0.1" width="12.2" height="13.2">
            <rect x="2.9" y="2.9" width="12.2" height="13.2" fill="white"></rect>
            <use xlink:href="#path-1" fill="black"></use>
        </mask>
    </defs>
    <g id="Page-1" stroke="none" stroke-width="1" fill="none" fill-rule="evenodd">
        <g id="UI:-Navigation-Bar---Menu-Dropdown-States:-768PX-1280PX+" transform="translate(-755.000000, -140.000000)">
            <g id="UI:-Initial-Drop-Down" transform="translate(30.000000, 95.000000)"></g>
            <g id="UI:-Entertainment" transform="translate(730.000000, 95.000000)" >
                <g id="UI:-Menu---Selected" transform="translate(0.000000, 32.000000)">
                    <polygon id="Rectangle-4" points="20 0 107 0 87 35 0 35"></polygon>
                </g>
            </g>
            <g id="Icon:-x" transform="translate(754.000000, 139.000000)">
                <g id="Icon:-+" transform="translate(-3.000000, -3.000000)">
                    <g id="Combined-Shape" transform="translate(9.000000, 9.500000) rotate(-315.000000) translate(-9.000000, -9.500000) ">
                        <use fill="#FFFFFF" fill-rule="evenodd" xlink:href="#path-1"></use>
                        <use stroke="#FFFFFF" mask="url(#mask-2)" stroke-width="0.2" xlink:href="#path-1"></use>
                    </g>
                </g>
            </g>
        </g>
    </g>
</svg>
