<?xml version="1.0" encoding="UTF-8" standalone="no"?>
<svg width="11px" height="11px" viewBox="0 0 11 11" version="1.1" xmlns="http://www.w3.org/2000/svg" xmlns:xlink="http://www.w3.org/1999/xlink">
    <!-- Generator: sketchtool 40.1 (33804) - http://www.bohemiancoding.com/sketch -->
    <title>55557726-ADE0-4B72-9578-36AF6DAB5D02</title>
    <desc>Created with sketchtool.</desc>
    <defs>
        <path d="M5.44983068,4.7427239 L9.34334373,0.849210846 C9.53292026,0.659634322 9.53418012,0.341791967 9.33891798,0.146529821 C9.1493664,-0.0430217524 8.82905482,-0.0507138032 8.63623695,0.142104065 L4.7427239,4.03561712 L0.849210846,0.142104065 C0.659634322,-0.0474724596 0.341791967,-0.0487323246 0.146529821,0.146529821 C-0.0430217524,0.336081395 -0.0507138032,0.656392978 0.142104065,0.849210846 L4.03561712,4.7427239 L0.142104065,8.63623695 C-0.0474724596,8.82581348 -0.0487323246,9.14365583 0.146529821,9.33891798 C0.336081395,9.52846955 0.656392978,9.5361616 0.849210846,9.34334373 L4.7427239,5.44983068 L8.63623695,9.34334373 C8.82581348,9.53292026 9.14365583,9.53418012 9.33891798,9.33891798 C9.52846955,9.1493664 9.5361616,8.82905482 9.34334373,8.63623695 L5.44983068,4.7427239 Z" id="path-1"></path>
        <mask id="mask-2" maskContentUnits="userSpaceOnUse" maskUnits="objectBoundingBox" x="-0.1" y="-0.1" width="9.6854478" height="9.6854478">
            <rect x="-0.1" y="-0.1" width="9.6854478" height="9.6854478" fill="white"></rect>
            <use xlink:href="#path-1" fill="black"></use>
        </mask>
    </defs>
    <g id="Page-1" stroke="none" stroke-width="1" fill="none" fill-rule="evenodd">
        <g id="UI:-Navigation-Bar---Menu-Dropdown-States:-768PX-1280PX+" transform="translate(-1010.000000, -377.000000)">
            <g id="UI:-Entertainment" transform="translate(730.000000, 95.000000)">
                <g id="UI:-Dropdown-Item---Sports" transform="translate(0.000000, 147.000000)">
                    <g id="Parent">
                        <g id="Selected" transform="translate(0.000000, 119.000000)">
                            <rect id="Item-BG" x="0" y="0" width="320" height="40"></rect>
                            <g id="Icon:-x" transform="translate(280.000000, 16.000000)">
                                <g id="Icon:-+" transform="translate(1.000000, 1.000000)">
                                    <g id="Combined-Shape">
                                        <use fill="#FFFFFF" fill-rule="evenodd" xlink:href="#path-1"></use>
                                        <use stroke="#FFFFFF" mask="url(#mask-2)" stroke-width="0.2" xlink:href="#path-1"></use>
                                    </g>
                                </g>
                            </g>
                        </g>
                    </g>
                </g>
            </g>
        </g>
    </g>
</svg>
