<?xml version="1.0" encoding="UTF-8" standalone="no"?>
<svg width="14px" height="15px" viewBox="0 0 14 15" version="1.1" xmlns="http://www.w3.org/2000/svg" xmlns:xlink="http://www.w3.org/1999/xlink">
    <!-- Generator: sketchtool 40.1 (33804) - http://www.bohemiancoding.com/sketch -->
    <title>802E08A8-5C2A-4F26-B6E9-FA84D4133258</title>
    <desc>Created with sketchtool.</desc>
    <defs>
        <path d="M6.5,6 L6.5,0.493741035 C6.5,0.225639343 6.27614237,0 6,0 C5.73193359,0 5.5,0.221055391 5.5,0.493741035 L5.5,6 L0.500347316,6 C0.229000568,6 0,6.22385763 0,6.5 C0,6.76806641 0.224013124,7 0.500347316,7 L5.5,7 L5.5,12.506259 C5.5,12.7743607 5.72385763,13 6,13 C6.26806641,13 6.5,12.7789446 6.5,12.506259 L6.5,7 L11.4996527,7 C11.7709994,7 12,6.77614237 12,6.5 C12,6.23193359 11.7759869,6 11.4996527,6 L6.5,6 Z" id="path-1"></path>
        <mask id="mask-2" maskContentUnits="userSpaceOnUse" maskUnits="objectBoundingBox" x="-0.1" y="-0.1" width="12.2" height="13.2">
            <rect x="-0.1" y="-0.1" width="12.2" height="13.2" fill="white"></rect>
            <use xlink:href="#path-1" fill="black"></use>
        </mask>
    </defs>
    <g id="Page-1" stroke="none" stroke-width="1" fill="none" fill-rule="evenodd">
        <g id="UI:-Navigation-Bar---Menu-Dropdown-States:-768PX-1280PX+" transform="translate(-1007.000000, -255.000000)">
            <g id="UI:-Entertainment" transform="translate(730.000000, 95.000000)">
                <g id="UI:-Dropdown-Item---Sports" transform="translate(0.000000, 147.000000)">
                    <g id="Parent">
                        <g id="Default">
                            <rect id="Item-BG" x="0" y="0" width="320" height="40"></rect>
                            <g id="Icon:-+" transform="translate(278.000000, 14.000000)">
                                <g id="Combined-Shape">
                                    <g>
                                        <use fill="#FFFFFF" fill-rule="evenodd" xlink:href="#path-1"></use>
                                        <use stroke="#FFFFFF" mask="url(#mask-2)" stroke-width="0.2" xlink:href="#path-1"></use>
                                    </g>
                                </g>
                            </g>
                        </g>
                    </g>
                </g>
            </g>
        </g>
    </g>
</svg>
