<?xml version="1.0" encoding="utf-8"?>
<!-- Generator: Adobe Illustrator 20.0.0, SVG Export Plug-In . SVG Version: 6.00 Build 0)  -->
<svg version="1.1" id="Layer_1" xmlns="http://www.w3.org/2000/svg" xmlns:xlink="http://www.w3.org/1999/xlink" x="0px" y="0px"
	 viewBox="0 0 797.7 115.1" style="enable-background:new 0 0 797.7 115.1;" xml:space="preserve">
<style type="text/css">
	.st0{fill:#BC2027;}
	.st1{fill:#BC2228;}
	.st2{fill:#FFFFFF;}
</style>
<g>
	<g>
		<path d="M183.5,26.2v57.3h-6.8V41.4c0-0.6,0-1.2,0.1-1.8c0-0.6,0.1-1.3,0.1-2l-19.7,35.8c-0.6,1.2-1.5,1.8-2.8,1.8h-1.1
			c-1.3,0-2.2-0.6-2.8-1.8l-20.1-36c0.2,1.4,0.2,2.7,0.2,3.9v42.1h-6.8V26.2h5.7c0.7,0,1.2,0.1,1.6,0.2c0.4,0.1,0.7,0.5,1.1,1.1
			l19.8,35.3c0.3,0.6,0.6,1.3,0.9,2c0.3,0.7,0.6,1.4,0.9,2.1c0.3-0.7,0.5-1.4,0.8-2.1c0.3-0.7,0.6-1.4,1-2l19.4-35.2
			c0.3-0.6,0.7-1,1.1-1.1c0.4-0.1,0.9-0.2,1.6-0.2H183.5z"/>
		<path d="M230.5,43l-22.6,52.5c-0.2,0.5-0.5,1-0.9,1.3c-0.4,0.3-0.9,0.5-1.7,0.5h-5.3l7.4-16.1L190.8,43h6.2c0.6,0,1.1,0.2,1.5,0.5
			c0.4,0.3,0.6,0.6,0.7,1L210,70c0.4,1.1,0.8,2.3,1.1,3.5c0.4-1.3,0.8-2.4,1.2-3.6l10.5-25.5c0.2-0.4,0.4-0.8,0.8-1.1
			c0.4-0.3,0.8-0.4,1.3-0.4H230.5z"/>
		<path d="M287,25.5v58h-12.1v-25h-25.6v25h-12.1v-58h12.1v24.6h25.6V25.5H287z"/>
		<path d="M315,41.6c3.1,0,5.9,0.5,8.4,1.5c2.5,1,4.7,2.4,6.5,4.2c1.8,1.8,3.2,4,4.2,6.7c1,2.6,1.5,5.6,1.5,8.8
			c0,3.3-0.5,6.2-1.5,8.9c-1,2.6-2.4,4.9-4.2,6.7s-4,3.3-6.5,4.2s-5.3,1.5-8.4,1.5c-3.1,0-6-0.5-8.5-1.5c-2.5-1-4.7-2.4-6.5-4.2
			s-3.2-4.1-4.2-6.7c-1-2.6-1.5-5.6-1.5-8.9c0-3.3,0.5-6.2,1.5-8.8c1-2.6,2.4-4.8,4.2-6.7c1.8-1.8,4-3.2,6.5-4.2
			C309,42.1,311.9,41.6,315,41.6z M315,75.8c3.1,0,5.5-1.1,7-3.3c1.5-2.2,2.3-5.4,2.3-9.7c0-4.3-0.8-7.5-2.3-9.7
			c-1.5-2.2-3.9-3.3-7-3.3c-3.2,0-5.6,1.1-7.1,3.3c-1.5,2.2-2.3,5.4-2.3,9.7c0,4.3,0.8,7.5,2.3,9.7C309.4,74.7,311.8,75.8,315,75.8z
			"/>
		<path d="M342.6,83.5V42.3h6.8c1.4,0,2.3,0.6,2.8,1.9l0.6,2.7c0.7-0.7,1.5-1.4,2.2-2.1c0.8-0.6,1.6-1.2,2.5-1.7
			c0.9-0.5,1.8-0.8,2.9-1.1c1-0.3,2.1-0.4,3.3-0.4c2.5,0,4.6,0.7,6.3,2c1.7,1.3,2.9,3.1,3.8,5.4c0.7-1.3,1.5-2.4,2.5-3.4
			c1-0.9,2-1.7,3.2-2.3c1.2-0.6,2.4-1,3.7-1.3c1.3-0.3,2.6-0.4,3.9-0.4c2.3,0,4.4,0.3,6.2,1c1.8,0.7,3.3,1.7,4.5,3.1
			c1.2,1.3,2.1,3,2.8,4.9c0.6,1.9,1,4.2,1,6.6v26.2h-11V57.3c0-4.8-2.1-7.2-6.2-7.2c-0.9,0-1.8,0.2-2.6,0.5
			c-0.8,0.3-1.5,0.8-2.1,1.4c-0.6,0.6-1.1,1.4-1.4,2.3c-0.3,0.9-0.5,1.9-0.5,3.1v26.2h-11V57.3c0-2.6-0.5-4.5-1.5-5.6
			c-1-1.1-2.5-1.7-4.5-1.7c-1.3,0-2.5,0.3-3.6,0.9c-1.1,0.6-2.2,1.4-3.2,2.5v30H342.6z"/>
		<path d="M418.9,64.6c0.3,3.9,1.4,6.7,3.3,8.5c1.9,1.8,4.3,2.7,7.3,2.7c1.5,0,2.8-0.2,3.9-0.5c1.1-0.4,2.1-0.8,2.9-1.2
			s1.6-0.8,2.3-1.2c0.7-0.4,1.4-0.5,2-0.5c0.9,0,1.5,0.3,2,1l3.2,4c-1.2,1.4-2.5,2.5-3.9,3.4c-1.4,0.9-2.9,1.6-4.4,2.1
			c-1.5,0.5-3.1,0.9-4.6,1.1c-1.5,0.2-3,0.3-4.5,0.3c-2.9,0-5.6-0.5-8.1-1.4c-2.5-0.9-4.7-2.3-6.5-4.2s-3.3-4.2-4.4-6.9
			c-1.1-2.7-1.6-5.9-1.6-9.6c0-2.8,0.5-5.4,1.4-7.9s2.2-4.6,4-6.5c1.7-1.8,3.8-3.3,6.3-4.4c2.5-1.1,5.3-1.6,8.4-1.6
			c2.6,0,5.1,0.4,7.3,1.3c2.2,0.8,4.1,2.1,5.8,3.7s2.9,3.6,3.8,5.9c0.9,2.3,1.3,5,1.3,8c0,0.8,0,1.5-0.1,2c-0.1,0.5-0.2,1-0.4,1.3
			c-0.2,0.3-0.4,0.5-0.8,0.7c-0.3,0.1-0.7,0.2-1.2,0.2H418.9z M436.2,58c0-1.1-0.2-2.2-0.5-3.3c-0.3-1-0.8-2-1.5-2.8
			c-0.7-0.8-1.5-1.4-2.5-1.9c-1-0.5-2.2-0.7-3.6-0.7c-2.6,0-4.7,0.7-6.2,2.2c-1.5,1.5-2.5,3.6-2.9,6.4H436.2z"/>
		<path d="M499.8,83.5h-10.8c-2,0-3.5-0.8-4.4-2.3l-11-17.8c-0.5-0.7-1-1.2-1.5-1.5c-0.5-0.3-1.4-0.5-2.4-0.5h-4.1v22.1h-12v-58
			h18.2c4.1,0,7.5,0.4,10.4,1.3c2.9,0.8,5.2,2,7.1,3.5c1.8,1.5,3.2,3.3,4,5.3c0.9,2.1,1.3,4.3,1.3,6.8c0,1.9-0.3,3.7-0.8,5.5
			c-0.5,1.7-1.3,3.3-2.4,4.7c-1,1.4-2.3,2.7-3.8,3.8c-1.5,1.1-3.3,2-5.2,2.6c0.8,0.4,1.5,0.9,2.2,1.5c0.7,0.6,1.3,1.3,1.8,2.1
			L499.8,83.5z M471.7,52.9c1.9,0,3.6-0.2,5-0.7c1.4-0.5,2.6-1.2,3.5-2c0.9-0.9,1.6-1.9,2-3.1c0.4-1.2,0.6-2.5,0.6-3.8
			c0-2.7-0.9-4.9-2.7-6.4c-1.8-1.5-4.6-2.3-8.3-2.3h-6.2v18.4H471.7z"/>
		<path d="M538.5,42.3v41.2h-6.8c-1.4,0-2.3-0.6-2.7-1.9l-0.7-2.9c-0.8,0.8-1.7,1.5-2.6,2.2c-0.9,0.7-1.8,1.2-2.8,1.7
			c-1,0.5-2.1,0.9-3.2,1.1c-1.2,0.3-2.4,0.4-3.8,0.4c-2.2,0-4.2-0.4-6-1.2c-1.7-0.8-3.2-1.9-4.4-3.2s-2.1-3-2.7-5
			c-0.6-1.9-0.9-4-0.9-6.3V42.3h11v26.2c0,2.3,0.5,4.1,1.6,5.3c1.1,1.3,2.6,1.9,4.7,1.9c1.5,0,3-0.3,4.4-1c1.4-0.7,2.7-1.6,3.9-2.8
			V42.3H538.5z"/>
		<path d="M557.9,47.1c0.8-0.8,1.7-1.5,2.6-2.2c0.9-0.7,1.8-1.2,2.8-1.7s2.1-0.9,3.2-1.1c1.2-0.3,2.4-0.4,3.8-0.4
			c2.2,0,4.2,0.4,6,1.2c1.7,0.8,3.2,1.9,4.4,3.2c1.2,1.4,2.1,3,2.7,5c0.6,1.9,0.9,4,0.9,6.3v26.2h-11V57.3c0-2.3-0.5-4.1-1.6-5.3
			c-1.1-1.3-2.6-1.9-4.7-1.9c-1.5,0-3,0.3-4.4,1c-1.4,0.7-2.7,1.6-3.9,2.8v29.6h-11V42.3h6.8c1.4,0,2.3,0.6,2.8,1.9L557.9,47.1z"/>
		<path d="M640,29.1c0,0.9-0.3,1.7-0.8,2.6l-32.4,45.6h32.8v6.3h-43v-3c0-0.4,0.1-0.8,0.2-1.2c0.1-0.4,0.3-0.7,0.5-1.1l32.5-45.7
			h-31.8v-6.3H640V29.1z"/>
		<path d="M663.4,42.3c3,0,5.6,0.5,8,1.5c2.4,1,4.4,2.4,6.1,4.2c1.7,1.8,3,4,3.9,6.6c0.9,2.6,1.3,5.4,1.3,8.6c0,3.2-0.4,6.1-1.3,8.6
			c-0.9,2.6-2.2,4.7-3.9,6.6c-1.7,1.8-3.7,3.2-6.1,4.2c-2.4,1-5,1.5-8,1.5c-3,0-5.7-0.5-8.1-1.5c-2.4-1-4.4-2.4-6.1-4.2
			c-1.7-1.8-3-4-3.9-6.6c-0.9-2.6-1.3-5.4-1.3-8.6c0-3.2,0.4-6,1.3-8.6c0.9-2.6,2.2-4.8,3.9-6.6c1.7-1.8,3.7-3.2,6.1-4.2
			C657.7,42.8,660.4,42.3,663.4,42.3z M663.4,78.5c4,0,7-1.3,9-4c2-2.7,3-6.4,3-11.2c0-4.8-1-8.6-3-11.3c-2-2.7-5-4-9-4
			c-2,0-3.8,0.3-5.3,1c-1.5,0.7-2.8,1.7-3.8,3c-1,1.3-1.7,2.9-2.2,4.8c-0.5,1.9-0.7,4.1-0.7,6.5c0,4.8,1,8.5,3,11.2
			C656.3,77.2,659.4,78.5,663.4,78.5z"/>
		<path d="M698.4,48.9c0.9-1,1.8-1.9,2.8-2.7c1-0.8,2-1.5,3.1-2.1c1.1-0.6,2.3-1,3.5-1.3c1.2-0.3,2.6-0.5,4-0.5
			c2.2,0,4.2,0.4,5.9,1.1c1.7,0.7,3.1,1.8,4.2,3.1c1.1,1.3,2,3,2.6,4.9c0.6,1.9,0.9,4,0.9,6.3v25.8h-7.2V57.7c0-3.1-0.7-5.4-2.1-7.1
			c-1.4-1.7-3.5-2.5-6.4-2.5c-2.1,0-4.1,0.5-5.9,1.5c-1.8,1-3.5,2.4-5.1,4.1v29.8h-7.2V43h4.3c1,0,1.6,0.5,1.9,1.5L698.4,48.9z"/>
		<path d="M769.2,77.8c-0.9,1.1-1.9,2-3.2,2.8c-1.2,0.8-2.5,1.4-3.9,1.9c-1.4,0.5-2.8,0.9-4.3,1.1c-1.5,0.3-3,0.4-4.4,0.4
			c-2.8,0-5.4-0.5-7.7-1.4c-2.4-0.9-4.4-2.3-6.1-4.2c-1.7-1.8-3.1-4.1-4-6.8s-1.4-5.8-1.4-9.3c0-2.8,0.4-5.5,1.3-7.9
			c0.9-2.5,2.1-4.6,3.7-6.4c1.6-1.8,3.6-3.2,6-4.2c2.3-1,5-1.5,7.9-1.5c2.4,0,4.7,0.4,6.7,1.2c2.1,0.8,3.9,2,5.4,3.5
			c1.5,1.5,2.7,3.4,3.5,5.7c0.9,2.3,1.3,4.8,1.3,7.7c0,1.1-0.1,1.9-0.4,2.2c-0.2,0.4-0.7,0.6-1.4,0.6h-27.1c0.1,2.6,0.4,4.8,1.1,6.7
			c0.6,1.9,1.5,3.5,2.6,4.7c1.1,1.3,2.5,2.2,4,2.8c1.5,0.6,3.3,0.9,5.2,0.9c1.8,0,3.3-0.2,4.6-0.6c1.3-0.4,2.4-0.9,3.3-1.3
			c0.9-0.5,1.7-0.9,2.3-1.3c0.6-0.4,1.2-0.6,1.6-0.6c0.6,0,1,0.2,1.4,0.7L769.2,77.8z M763.5,58.8c0-1.7-0.2-3.2-0.7-4.5
			c-0.5-1.4-1.1-2.6-2-3.6s-2-1.8-3.3-2.3c-1.3-0.5-2.7-0.8-4.4-0.8c-3.4,0-6.1,1-8.1,3c-2,2-3.2,4.7-3.7,8.3H763.5z"/>
	</g>
	<g>
		<path d="M781,26.5v-0.8h5.7v0.8h-2.4v6.3h-0.9v-6.3H781z"/>
		<path d="M789.9,25.7l2.2,6l2.3-6h1.3v7.1h-0.9v-5.9h0l-2.2,5.9h-0.8l-2.2-5.9h0v5.9h-0.9v-7.1H789.9z"/>
	</g>
	<g>
		<path class="st0" d="M45,30.9c1.3,1.4,2.1,3.3,2.1,5.2c0.1,2.4-0.9,4.8-2.7,6.7c0.9,0.9,1.9,1.6,3.2,2c0.8,0.3,1.7,0.4,2.6,0.4
			c1.2,0,2.3-0.3,3.3-0.7c-2.4-1.5-3.9-4.1-3.9-7c-0.1-3.1,1.6-5.9,4.3-7.6c-0.4-0.2-0.7-0.4-1.1-0.5C51.8,29.2,51,29,50.1,29
			C48.2,29,46.4,29.7,45,30.9z"/>
		<path class="st0" d="M43.6,32.3c-0.5,0.7-0.9,1.5-1.2,2.3c-0.8,2.3-0.4,4.7,0.7,6.6c1.3-1.5,2-3.3,2-5.1
			C45.1,34.7,44.5,33.4,43.6,32.3z"/>
		<path class="st0" d="M55.4,43.4c1.1-0.9,2-2.2,2.5-3.6c1-3.1,0.1-6.4-2.2-8.5c-2.6,1.3-4.2,3.7-4.1,6.4
			C51.6,40.1,53,42.3,55.4,43.4z"/>
		<path class="st0" d="M3,30.3v54.5l47.2,27.3l47.2-27.3V30.3L50.2,3L3,30.3z M38.3,81.3c-1.7,1.7-3,3-3.8,4.1
			c0.3,0.7,0.2,1.5-0.4,2.1c-0.4,0.4-0.8,0.5-1.3,0.5c-0.5,0-0.9-0.2-1.3-0.5l-2.7-2.7c-0.7-0.7-0.7-1.9,0-2.6
			c0.6-0.6,1.4-0.7,2.1-0.4c1.2-0.9,2.4-2.1,4.1-3.8l2.2-2.2l3.3,3.3L38.3,81.3z M45.4,74.2l-3.1,3.1L38.9,74l3.1-3.1
			c0.7-0.7,1.3-1.3,1.9-2c1.5,1,2.8,1.9,4.1,2.9C47.2,72.5,46.3,73.3,45.4,74.2z M55.1,74.5c-7.3-7.3-13.8-9-25.7-20.8
			c-2.2-2.2-12.9-12.9-12.9-12.9c-2.3-2.3-2.1-6.1,0-8.2c1-1,2.6-1.6,4.1-1.6c1.5,0,3,0.5,4.1,1.6c0,0,10.6,10.6,12.9,12.9
			c11.2,11.2,13.5,18.4,20.8,25.7l2.4,2.4L57.6,77L55.1,74.5z M71.8,85.2l-2.7,2.7c-0.4,0.4-0.8,0.5-1.3,0.5c-0.5,0-1-0.2-1.3-0.5
			c-0.6-0.6-0.7-1.4-0.4-2.1c-0.9-1.2-2.1-2.4-3.8-4.1l-2.9-2.9l3.3-3.3l2.9,2.9c1.7,1.7,3,3,4.1,3.8c0.2-0.1,0.5-0.2,0.8-0.2
			c0.5,0,0.9,0.2,1.3,0.5C72.5,83.3,72.5,84.5,71.8,85.2z M75.8,32.3c2.3-2.3,6.1-2.1,8.2,0c2.1,2.1,2.1,6.1,0,8.2
			c0,0-10.6,10.6-12.9,12.9c-5.7,5.7-10.3,9.1-14.5,12c-1.4-1.8-2.7-3.6-4.1-5.7c-0.3-0.4-0.6-0.8-0.8-1.2c2.7-3.7,5.9-8,11.3-13.3
			C65.1,43,75.8,32.3,75.8,32.3z M60.1,40.5c-1.4,4.3-5.4,7.2-9.9,7.2c-1.1,0-2.2-0.2-3.3-0.5c-5.5-1.8-8.5-7.8-6.6-13.3
			c1.4-4.3,5.4-7.2,10-7.2c1.1,0,2.2,0.2,3.3,0.5C58.9,29.1,61.9,35,60.1,40.5z"/>
		<path class="st1" d="M99,27.7L51.7,0.4c-0.5-0.3-1-0.4-1.5-0.4s-1,0.1-1.5,0.4L1.5,27.7C0.6,28.2,0,29.2,0,30.3v54.5
			c0,1.1,0.6,2.1,1.5,2.6l47.2,27.3c0.5,0.3,1,0.4,1.5,0.4s1-0.1,1.5-0.4L99,87.4c0.9-0.5,1.5-1.5,1.5-2.6V30.3
			C100.5,29.2,99.9,28.2,99,27.7z"/>
		<path class="st2" d="M40.2,33.9c-1.8,5.5,1.2,11.4,6.6,13.3c1.1,0.4,2.2,0.5,3.3,0.5c4.5,0,8.5-2.9,9.9-7.2
			c1.8-5.5-1.1-11.4-6.6-13.3c-1.1-0.4-2.2-0.5-3.3-0.5C45.6,26.7,41.6,29.6,40.2,33.9z M42.4,34.6c0.3-0.8,0.7-1.6,1.2-2.3
			c0.9,1.1,1.5,2.4,1.5,3.9c0,1.8-0.7,3.5-2,5.1C42,39.3,41.6,36.9,42.4,34.6z M55.6,31.2c2.3,2.1,3.2,5.4,2.2,8.5
			c-0.5,1.4-1.4,2.7-2.5,3.6c-2.3-1.1-3.8-3.3-3.8-5.8C51.5,34.9,53.1,32.5,55.6,31.2z M53.8,30c-2.7,1.7-4.3,4.5-4.3,7.6
			c0,2.9,1.5,5.4,3.9,7c-1,0.5-2.2,0.7-3.3,0.7c-0.9,0-1.7-0.1-2.6-0.4c-1.3-0.4-2.3-1.1-3.2-2c1.8-2,2.8-4.4,2.7-6.7
			c0-2-0.8-3.8-2.1-5.2c1.4-1.2,3.2-1.9,5.1-1.9c0.9,0,1.7,0.1,2.6,0.4C53.1,29.6,53.5,29.8,53.8,30z"/>
		<path class="st2" d="M70.5,82c-0.3,0-0.5,0.1-0.8,0.2c-1.2-0.9-2.4-2.1-4.1-3.8l-2.9-2.9l-3.3,3.3l2.9,2.9c1.7,1.7,3,3,3.8,4.1
			c-0.3,0.7-0.2,1.5,0.4,2.1c0.4,0.4,0.8,0.5,1.3,0.5c0.5,0,1-0.2,1.3-0.5l2.7-2.7c0.7-0.7,0.7-1.9,0-2.6C71.4,82.2,71,82,70.5,82z"
			/>
		<path class="st2" d="M58.5,71.2c-7.3-7.3-9.6-14.5-20.8-25.7c-2.2-2.2-12.9-12.9-12.9-12.9c-1.1-1.1-2.6-1.6-4.1-1.6
			c-1.5,0-3.1,0.5-4.1,1.6c-2.1,2.1-2.3,5.9,0,8.2c0,0,10.6,10.6,12.9,12.9c11.8,11.8,18.4,13.5,25.7,20.8l2.4,2.4l3.3-3.3
			L58.5,71.2z"/>
		<path class="st2" d="M34.9,78c-1.7,1.7-3,3-4.1,3.8c-0.7-0.3-1.5-0.2-2.1,0.4c-0.7,0.7-0.7,1.9,0,2.6l2.7,2.7
			c0.4,0.4,0.8,0.5,1.3,0.5c0.5,0,1-0.2,1.3-0.5c0.6-0.6,0.7-1.4,0.4-2.1c0.9-1.2,2.1-2.4,3.8-4.1l2.2-2.2l-3.3-3.3L34.9,78z"/>
		<path class="st2" d="M42.1,70.8L38.9,74l3.3,3.3l3.1-3.1c0.9-0.9,1.8-1.7,2.6-2.4c-1.3-1-2.6-1.9-4.1-2.9
			C43.4,69.5,42.7,70.2,42.1,70.8z"/>
		<path class="st2" d="M52.5,59.7c1.4,2,2.7,3.9,4.1,5.7c4.1-2.9,8.8-6.3,14.5-12c2.2-2.2,12.9-12.9,12.9-12.9
			c2.1-2.1,2.1-6.1,0-8.2c-2.1-2.1-5.9-2.3-8.2,0c0,0-10.6,10.6-12.9,12.9c-5.3,5.3-8.6,9.6-11.3,13.3
			C51.9,58.9,52.2,59.3,52.5,59.7z"/>
	</g>
</g>
</svg>
