<?xml version="1.0" encoding="UTF-8"?>
<svg width="25px" height="29px" viewBox="0 0 25 29" version="1.1" xmlns="http://www.w3.org/2000/svg" xmlns:xlink="http://www.w3.org/1999/xlink">
    <!-- Generator: Sketch 41.2 (35397) - http://www.bohemiancoding.com/sketch -->
    <title>Swipe-Icon</title>
    <desc>Created with Sketch.</desc>
    <defs></defs>
    <g id="Page-1" stroke="none" stroke-width="1" fill="none" fill-rule="evenodd">
        <g id="Swipe-Icon" fill="#FFFFFF">
            <g id="Page-1">
                <g id="Swipe-Icon">
                    <polygon id="Fill-1" points="17.4044376 2 16.5392501 2.77774957 17.7976127 3.92581075 13 3.92581075 13 5.03706289 17.6796939 5.03706289 16.4213313 6.22225043 17.2471002 7 20 4.44462778"></polygon>
                    <polygon id="Fill-2" points="0 4.55537222 2.56677772 7 3.4223703 6.22225043 2.17796287 5.03674557 7 5.03674557 7 3.92581075 2.29457401 3.92581075 3.53898144 2.77774957 2.72203713 2"></polygon>
                    <path d="M10.3333333,1.31818182 C11.0836667,1.31818182 11.6666667,1.89455682 11.6666667,2.63636364 L11.6666667,10.875 C11.6666667,11.2391477 11.965,11.5340909 12.3333333,11.5340909 C12.7016667,11.5340909 13,11.2391477 13,10.875 C13,10.1331932 13.583,9.55681818 14.3333333,9.55681818 C15.0836667,9.55681818 15.6666667,10.1331932 15.6666667,10.875 L15.6666667,12.8522727 C15.6666667,13.2164205 15.965,13.5113636 16.3333333,13.5113636 C16.7016667,13.5113636 17,13.2164205 17,12.8522727 C17,12.1104659 17.583,11.5340909 18.3333333,11.5340909 C19.0836667,11.5340909 19.6666667,12.1104659 19.6666667,12.8522727 L19.6666667,14.8295455 C19.6666667,15.1936932 19.965,15.4886364 20.3333333,15.4886364 C20.7016667,15.4886364 21,15.1936932 21,14.8295455 C21,14.0877386 21.583,13.5113636 22.3333333,13.5113636 C23.0836667,13.5113636 23.6666667,14.0877386 23.6666667,14.8295455 L23.6666667,19.1136364 C23.6666667,21.1284773 22.8556667,22.9327386 21.5313333,24.2423523 C21.405,24.3656023 21.332,24.5405909 21.3333333,24.7159091 L21.3333333,27.6818182 L11.3333333,27.6818182 L11.3333333,26.3636364 C11.3346667,26.1883182 11.2616667,26.0133295 11.1353333,25.8900795 C10.3116667,25.0754432 9.08833333,23.8149318 8.08333333,22.4400682 C7.07833333,21.064875 6.33333333,19.5759886 6.33333333,18.4545455 L6.33333333,15.8181818 C6.33333333,14.9432386 6.883,14.2205455 7.66666667,13.9542727 L7.66666667,17.7954545 C7.66166667,18.1437841 7.981,18.4637727 8.33333333,18.4637727 C8.68566667,18.4637727 9.005,18.1437841 9,17.7954545 L9,2.63636364 C9,1.89455682 9.583,1.31818182 10.3333333,1.31818182 M10.3333333,0 C8.86766667,0 7.66666667,1.18735227 7.66666667,2.63636364 L7.66666667,12.6565227 C6.161,12.9728864 5,14.2380114 5,15.8181818 L5,18.4545455 C5,20.0996364 5.92166667,21.7364886 7,23.2125227 C8.00766667,24.5913409 9.16233333,25.7859432 10,26.6210114 L10,28.3409091 C10,28.6859432 10.3176667,29 10.6666667,29 L22,29 C22.349,29 22.6666667,28.6859432 22.6666667,28.3409091 L22.6666667,24.9426364 C24.1063333,23.4122273 25,21.3700341 25,19.1136364 L25,14.8295455 C25,13.3805341 23.799,12.1931818 22.3333333,12.1931818 C21.8196667,12.1931818 21.3666667,12.3741023 20.9583333,12.625875 C20.8366667,11.2856136 19.7186667,10.2159091 18.3333333,10.2159091 C17.8196667,10.2159091 17.3666667,10.3968295 16.9583333,10.6482727 C16.8366667,9.30834091 15.7186667,8.23863636 14.3333333,8.23863636 C13.8383333,8.23863636 13.3986667,8.40505682 13,8.64035227 L13,2.63636364 C13,1.18735227 11.799,0 10.3333333,0" id="Fill-3"></path>
                </g>
            </g>
        </g>
    </g>
</svg>