<?xml version="1.0" encoding="utf-8"?>
<!-- Generator: Adobe Illustrator 20.0.0, SVG Export Plug-In . SVG Version: 6.00 Build 0)  -->
<svg version="1.1" id="Layer_1" xmlns="http://www.w3.org/2000/svg" xmlns:xlink="http://www.w3.org/1999/xlink" x="0px" y="0px"
	 viewBox="0 0 792 612" style="enable-background:new 0 0 792 612;" xml:space="preserve">
<style type="text/css">
	.st0{fill:#00B9E3;}
</style>
<g>
	<rect x="581.2" y="352.5" class="st0" width="29.9" height="29.9"/>
	<g>
		<path d="M293.1,376.6c-10.2,5.5-20.9,9.7-35.8,9.7c-32.6,0-52.2-17.7-52.2-52.2v-49.6h-23.8v-33.1h23.8v-43.8h41.8v43.8h38.6v33.1
			h-38.6v45.4c0,13.6,6.5,19.1,17.5,19.1c5.7,0,13.6-2.1,19.1-5.2L293.1,376.6z"/>
		<path d="M386.8,326.7l38.4,8.4c-6.5,31.1-34.2,51.2-66.8,51.2c-39.2,0-71.5-27.9-71.5-69.4c0-41.2,32.4-69.4,71.5-69.4
			c31.8,0,59.5,19.6,66.8,50.4l-39.2,9.4c-3.7-15.9-14.4-23.2-27.7-23.2c-18.8,0-31.3,13.8-31.3,32.9c0,19.3,12.5,32.9,31.3,32.9
			C371.7,349.7,382.4,342.7,386.8,326.7z"/>
		<path d="M572.6,382.3h-48l-25.1-37.8l-25.3,37.8h-47.8l43.1-63.4l-43.1-67.9h47.8l25.3,40.7l25.1-40.7h48l-43.3,67.9L572.6,382.3z
			"/>
	</g>
</g>
</svg>
