<?xml version="1.0" encoding="utf-8"?>
<!-- Generator: Adobe Illustrator 20.0.0, SVG Export Plug-In . SVG Version: 6.00 Build 0)  -->
<svg version="1.1" id="Layer_1" xmlns="http://www.w3.org/2000/svg" xmlns:xlink="http://www.w3.org/1999/xlink" x="0px" y="0px"
	 viewBox="0 0 429.7 178.8" style="enable-background:new 0 0 429.7 178.8;" xml:space="preserve">
<style type="text/css">
	.st0{fill:#FFFFFF;}
	.st1{fill:#FFFFFF;}
</style>
<g>
	<rect x="399.8" y="145" class="st0" width="29.9" height="29.9"/>
	<g>
		<path class="st1" d="M111.7,169.1c-10.2,5.5-20.9,9.7-35.8,9.7c-32.6,0-52.2-17.7-52.2-52.2V77H0V43.8h23.8V0h41.8v43.8h38.6V77
			H65.5v45.4c0,13.6,6.5,19.1,17.5,19.1c5.7,0,13.6-2.1,19.1-5.2L111.7,169.1z"/>
		<path class="st1" d="M205.4,119.3l38.4,8.4c-6.5,31.1-34.2,51.2-66.8,51.2c-39.2,0-71.5-27.9-71.5-69.4
			c0-41.2,32.4-69.4,71.5-69.4c31.8,0,59.5,19.6,66.8,50.4l-39.2,9.4C201,83.8,190.3,76.5,177,76.5c-18.8,0-31.3,13.8-31.3,32.9
			c0,19.3,12.5,32.9,31.3,32.9C190.3,142.2,201,135.2,205.4,119.3z"/>
		<path class="st1" d="M391.2,174.9h-48L318.2,137l-25.3,37.8h-47.8l43.1-63.4l-43.1-67.9h47.8l25.3,40.7l25.1-40.7h48l-43.3,67.9
			L391.2,174.9z"/>
	</g>
</g>
</svg>
