<?xml version="1.0" encoding="utf-8"?>
<!-- Generator: Adobe Illustrator 20.0.0, SVG Export Plug-In . SVG Version: 6.00 Build 0)  -->
<svg version="1.1" id="Layer_1" xmlns="http://www.w3.org/2000/svg" xmlns:xlink="http://www.w3.org/1999/xlink" x="0px" y="0px"
	 viewBox="0 0 674 114.9" style="enable-background:new 0 0 674 114.9;" xml:space="preserve">
<style type="text/css">
	.st0{fill:#FFFFFF;}
	.st1{fill:#2D3E50;}
</style>
<g>
	<g>
		<path class="st0" d="M154.1,37.7h-15.3v43.5H128V37.7h-15.3V29h41.4V37.7z"/>
		<path class="st0" d="M167.4,43.5c2.8,0,5.3,0.4,7.6,1.3c2.3,0.9,4.2,2.2,5.9,3.8c1.6,1.6,2.9,3.6,3.8,6c0.9,2.4,1.3,5,1.3,8
			c0,3-0.4,5.6-1.3,8c-0.9,2.4-2.1,4.4-3.8,6c-1.6,1.7-3.6,2.9-5.9,3.8c-2.3,0.9-4.8,1.3-7.6,1.3c-2.8,0-5.4-0.4-7.7-1.3
			s-4.3-2.2-5.9-3.8c-1.6-1.7-2.9-3.7-3.8-6c-0.9-2.4-1.3-5-1.3-8c0-3,0.4-5.6,1.3-8c0.9-2.4,2.2-4.3,3.8-6c1.6-1.6,3.6-2.9,5.9-3.8
			C162,44,164.6,43.5,167.4,43.5z M167.4,74.3c2.8,0,4.9-1,6.3-2.9s2.1-4.9,2.1-8.7c0-3.8-0.7-6.7-2.1-8.7s-3.5-2.9-6.3-2.9
			c-2.9,0-5,1-6.4,2.9s-2.1,4.9-2.1,8.7c0,3.9,0.7,6.8,2.1,8.7S164.5,74.3,167.4,74.3z"/>
		<path class="st0" d="M224.8,44.1v37.1h-6.1c-1.3,0-2.1-0.6-2.4-1.7l-0.6-2.6c-0.7,0.7-1.5,1.4-2.3,2s-1.6,1.1-2.5,1.5
			s-1.9,0.8-2.9,1c-1,0.2-2.2,0.4-3.4,0.4c-2,0-3.8-0.3-5.4-1c-1.6-0.7-2.9-1.7-3.9-2.9s-1.9-2.7-2.4-4.5c-0.6-1.7-0.8-3.6-0.8-5.7
			V44.1h9.9v23.6c0,2.1,0.5,3.7,1.4,4.8c0.9,1.1,2.4,1.7,4.2,1.7c1.4,0,2.7-0.3,3.9-0.9c1.2-0.6,2.4-1.4,3.5-2.5V44.1H224.8z"/>
		<path class="st0" d="M259.9,52.4c-0.3,0.4-0.6,0.7-0.9,0.9c-0.3,0.2-0.7,0.3-1.2,0.3c-0.5,0-0.9-0.1-1.4-0.4
			c-0.4-0.3-1-0.6-1.5-0.9c-0.6-0.3-1.3-0.6-2.1-0.9c-0.8-0.3-1.8-0.4-3-0.4c-1.5,0-2.8,0.3-3.9,0.8c-1.1,0.5-2,1.3-2.7,2.3
			c-0.7,1-1.3,2.2-1.6,3.7c-0.3,1.4-0.5,3.1-0.5,4.9c0,3.8,0.8,6.7,2.3,8.7c1.5,2,3.6,3,6.2,3c0.9,0,1.7-0.1,2.4-0.2
			c0.7-0.2,1.2-0.4,1.7-0.6c0.5-0.2,0.9-0.5,1.3-0.8s0.7-0.6,1-0.8c0.3-0.2,0.6-0.4,1-0.6c0.3-0.2,0.7-0.2,1.1-0.2
			c0.8,0,1.4,0.3,1.8,0.9l2.8,3.6c-1.1,1.2-2.2,2.2-3.4,3c-1.2,0.8-2.4,1.4-3.7,1.9c-1.3,0.5-2.6,0.8-3.9,1
			c-1.3,0.2-2.6,0.3-3.9,0.3c-2.3,0-4.4-0.4-6.5-1.3c-2-0.9-3.8-2.1-5.4-3.7c-1.5-1.6-2.8-3.6-3.7-6c-0.9-2.4-1.3-5.1-1.3-8.1
			c0-2.7,0.4-5.2,1.2-7.6s2-4.3,3.5-6c1.5-1.7,3.4-3,5.7-4c2.3-1,4.9-1.5,7.9-1.5c2.8,0,5.3,0.5,7.5,1.4c2.1,0.9,4.1,2.2,5.8,4
			L259.9,52.4z"/>
		<path class="st0" d="M277.8,47.8c0.7-0.6,1.4-1.2,2.2-1.7c0.8-0.5,1.6-1,2.4-1.3c0.9-0.4,1.8-0.7,2.7-0.9c1-0.2,2-0.3,3.1-0.3
			c2,0,3.8,0.3,5.4,1c1.6,0.7,2.9,1.7,3.9,2.9c1.1,1.2,1.9,2.7,2.4,4.5c0.5,1.7,0.8,3.6,0.8,5.7v23.6h-9.9V57.7
			c0-2.1-0.5-3.7-1.4-4.8c-1-1.1-2.4-1.7-4.2-1.7c-1.4,0-2.7,0.3-3.9,0.9c-1.2,0.6-2.4,1.4-3.5,2.5v26.7h-9.9V27.6h9.9V47.8z"/>
		<path class="st0" d="M341.5,27.6v53.7h-6.1c-1.3,0-2.1-0.6-2.4-1.7l-0.8-3.2c-0.7,0.8-1.5,1.6-2.4,2.2c-0.8,0.7-1.7,1.3-2.7,1.7
			c-1,0.5-2,0.9-3.1,1.1c-1.1,0.3-2.3,0.4-3.6,0.4c-2,0-3.8-0.4-5.5-1.3s-3.1-2.1-4.3-3.7s-2.2-3.6-2.8-6c-0.7-2.4-1-5-1-8.1
			c0-2.8,0.4-5.3,1.1-7.7s1.8-4.4,3.2-6.2s3.1-3.1,5-4.1c2-1,4.2-1.5,6.6-1.5c2,0,3.7,0.3,5.1,0.9c1.4,0.6,2.6,1.4,3.8,2.4V27.6
			H341.5z M331.6,53.8c-0.9-1.1-2-1.8-3-2.3c-1.1-0.4-2.2-0.6-3.5-0.6c-1.2,0-2.3,0.2-3.3,0.7c-1,0.5-1.8,1.2-2.5,2.1
			c-0.7,1-1.3,2.2-1.6,3.7c-0.4,1.5-0.6,3.3-0.6,5.4c0,2.1,0.2,3.8,0.5,5.3c0.3,1.4,0.8,2.6,1.4,3.5c0.6,0.9,1.3,1.5,2.1,1.9
			c0.8,0.4,1.8,0.6,2.8,0.6c1.8,0,3.2-0.3,4.4-1c1.2-0.7,2.3-1.7,3.4-3V53.8z"/>
		<path class="st0" d="M366.5,43.5c2.8,0,5.3,0.4,7.6,1.3c2.3,0.9,4.2,2.2,5.9,3.8c1.6,1.6,2.9,3.6,3.8,6c0.9,2.4,1.3,5,1.3,8
			c0,3-0.4,5.6-1.3,8s-2.1,4.4-3.8,6c-1.6,1.7-3.6,2.9-5.9,3.8c-2.3,0.9-4.8,1.3-7.6,1.3c-2.8,0-5.4-0.4-7.6-1.3s-4.3-2.2-5.9-3.8
			c-1.6-1.7-2.9-3.7-3.8-6c-0.9-2.4-1.3-5-1.3-8c0-3,0.5-5.6,1.3-8c0.9-2.4,2.2-4.3,3.8-6c1.6-1.6,3.6-2.9,5.9-3.8
			C361.2,44,363.7,43.5,366.5,43.5z M366.5,74.3c2.8,0,4.9-1,6.3-2.9c1.4-2,2.1-4.9,2.1-8.7c0-3.8-0.7-6.7-2.1-8.7
			c-1.4-2-3.5-2.9-6.3-2.9c-2.9,0-5,1-6.4,2.9s-2.1,4.9-2.1,8.7c0,3.9,0.7,6.8,2.1,8.7S363.6,74.3,366.5,74.3z"/>
		<path class="st0" d="M444.4,44.1l-11.7,37.1h-8c-0.4,0-0.8-0.1-1.1-0.4c-0.3-0.3-0.6-0.7-0.7-1.3l-6-20.1
			c-0.2-0.8-0.5-1.5-0.6-2.3c-0.2-0.8-0.3-1.5-0.5-2.3c-0.2,0.8-0.3,1.5-0.5,2.3c-0.2,0.8-0.4,1.6-0.6,2.3l-6.1,20
			c-0.3,1.2-1.1,1.7-2.2,1.7h-7.6L387,44.1h7.9c0.7,0,1.3,0.2,1.8,0.5c0.5,0.3,0.8,0.8,1,1.3l4.6,18.4c0.3,1.2,0.5,2.3,0.8,3.4
			c0.2,1.1,0.4,2.2,0.6,3.3c0.3-1.1,0.6-2.2,0.9-3.3c0.3-1.1,0.7-2.2,1-3.4l5.4-18.4c0.2-0.5,0.5-0.9,1-1.3c0.5-0.3,1-0.5,1.7-0.5
			h4.4c0.7,0,1.3,0.2,1.8,0.5c0.5,0.3,0.8,0.8,1,1.3l5.3,18.4c0.3,1.2,0.7,2.3,1,3.4c0.3,1.1,0.6,2.2,0.9,3.4
			c0.2-1.1,0.4-2.2,0.6-3.3c0.2-1.1,0.5-2.3,0.8-3.4l4.8-18.4c0.2-0.5,0.5-1,1-1.3c0.5-0.3,1-0.5,1.7-0.5H444.4z"/>
		<path class="st0" d="M458.2,48.4c0.7-0.7,1.5-1.4,2.3-2c0.8-0.6,1.7-1.1,2.6-1.5c0.9-0.4,1.9-0.8,2.9-1c1-0.2,2.2-0.4,3.4-0.4
			c2,0,3.8,0.3,5.4,1c1.6,0.7,2.9,1.7,3.9,2.9c1.1,1.2,1.9,2.7,2.4,4.5c0.5,1.7,0.8,3.6,0.8,5.7v23.6H472V57.7
			c0-2.1-0.5-3.7-1.4-4.8s-2.4-1.7-4.2-1.7c-1.4,0-2.7,0.3-3.9,0.9c-1.2,0.6-2.4,1.4-3.5,2.5v26.7H449V44.1h6.1
			c1.2,0,2.1,0.6,2.5,1.7L458.2,48.4z"/>
		<path class="st0" d="M527,75.4v5.9h-29.3V29.7h6.9v45.7H527z"/>
		<path class="st0" d="M545.9,44.2c2.7,0,5.1,0.4,7.2,1.3c2.1,0.9,4,2.1,5.5,3.8s2.7,3.6,3.5,5.9s1.2,4.9,1.2,7.8
			c0,2.9-0.4,5.5-1.2,7.8c-0.8,2.3-2,4.3-3.5,5.9c-1.5,1.6-3.3,2.9-5.5,3.8c-2.1,0.9-4.5,1.3-7.2,1.3c-2.7,0-5.1-0.4-7.3-1.3
			c-2.1-0.9-4-2.1-5.5-3.8c-1.5-1.6-2.7-3.6-3.5-5.9c-0.8-2.3-1.2-4.9-1.2-7.8c0-2.9,0.4-5.4,1.2-7.8c0.8-2.3,2-4.3,3.5-5.9
			s3.3-2.9,5.5-3.8C540.8,44.6,543.2,44.2,545.9,44.2z M545.9,76.7c3.6,0,6.3-1.2,8.1-3.6s2.7-5.8,2.7-10.1c0-4.3-0.9-7.7-2.7-10.2
			c-1.8-2.4-4.5-3.6-8.1-3.6c-1.8,0-3.4,0.3-4.8,0.9c-1.4,0.6-2.5,1.5-3.4,2.7c-0.9,1.2-1.6,2.6-2,4.3c-0.4,1.7-0.7,3.7-0.7,5.8
			c0,4.3,0.9,7.7,2.7,10.1S542.2,76.7,545.9,76.7z"/>
		<path class="st0" d="M601.7,44.8L581.3,92c-0.2,0.5-0.5,0.9-0.8,1.2c-0.3,0.3-0.8,0.4-1.5,0.4h-4.8l6.7-14.5l-15-34.3h5.5
			c0.6,0,1,0.1,1.3,0.4s0.5,0.6,0.7,0.9l9.8,23c0.4,1,0.7,2.1,1,3.2c0.3-1.1,0.7-2.2,1.1-3.2l9.5-22.9c0.1-0.4,0.4-0.7,0.7-1
			s0.7-0.4,1.2-0.4H601.7z"/>
		<path class="st0" d="M605.7,49.9c2-1.9,4.2-3.4,6.5-4.4c2.3-1,4.9-1.4,7.7-1.4c2,0,3.9,0.3,5.4,1c1.6,0.7,2.9,1.6,4,2.8
			s1.9,2.7,2.4,4.4c0.6,1.7,0.8,3.6,0.8,5.6v23.3h-2.8c-0.6,0-1.1-0.1-1.4-0.3c-0.3-0.2-0.6-0.6-0.8-1.2l-0.7-3.5
			c-1,0.9-1.9,1.7-2.8,2.4c-0.9,0.7-1.9,1.3-2.9,1.7s-2.1,0.8-3.2,1.1c-1.1,0.3-2.4,0.4-3.8,0.4c-1.4,0-2.7-0.2-4-0.6
			c-1.2-0.4-2.3-1-3.3-1.8s-1.7-1.8-2.2-3s-0.8-2.6-0.8-4.3c0-1.4,0.4-2.8,1.2-4.2s2.1-2.5,3.9-3.5c1.8-1,4.1-1.9,6.9-2.5
			c2.9-0.7,6.4-1,10.5-1.1v-2.8c0-2.8-0.6-5-1.8-6.4s-3-2.2-5.4-2.2c-1.6,0-2.9,0.2-4,0.6c-1.1,0.4-2,0.8-2.8,1.3s-1.5,0.9-2,1.3
			c-0.6,0.4-1.1,0.6-1.7,0.6c-0.4,0-0.8-0.1-1.1-0.3c-0.3-0.2-0.6-0.5-0.8-0.8L605.7,49.9z M626.4,64.8c-3,0.1-5.5,0.3-7.5,0.7
			s-3.8,0.9-5.1,1.5c-1.3,0.6-2.3,1.3-2.8,2.1c-0.6,0.8-0.9,1.7-0.9,2.7c0,1,0.2,1.8,0.5,2.5c0.3,0.7,0.7,1.3,1.3,1.7
			c0.5,0.4,1.2,0.8,1.9,1c0.7,0.2,1.5,0.3,2.4,0.3c1.1,0,2.2-0.1,3.1-0.3c0.9-0.2,1.8-0.6,2.6-1c0.8-0.4,1.6-0.9,2.4-1.5
			s1.5-1.3,2.2-2.1V64.8z"/>
		<path class="st0" d="M649,28.2v53h-6.4v-53H649z"/>
	</g>
	<g>
		<path class="st0" d="M659.9,29.4v-0.8h5.5v0.8h-2.3v6.1h-0.9v-6.1H659.9z"/>
		<path class="st0" d="M668.4,28.6l2.2,5.8l2.2-5.8h1.2v6.9h-0.9v-5.7h0l-2.1,5.7h-0.8l-2.1-5.7h0v5.7h-0.9v-6.9H668.4z"/>
	</g>
	<g>
		<path class="st1" d="M60.1,31.3c0.6,0.2,1.1,0.4,1.6,0.6c0.5,0.2,1,0.4,1.5,0.7c0.9,0.4,1.8,0.4,2.7,0c0.4-0.2,0.9-0.4,1.3-0.6
			c0.3-0.1,0.6-0.3,1-0.4c0.5-0.2,0.4-1-0.1-1c-1.2-0.1-2.5-0.3-3.1-0.3c-1,0-2,0.1-3.1,0.2c-0.6,0.1-1.1,0.1-1.7,0.2
			C59.8,30.7,59.6,31.1,60.1,31.3z"/>
		<path class="st1" d="M36.2,67c-0.9-0.8-2.2-0.5-2.8,0.5c0,0,0,0,0,0c-0.4,0.6-1.2,0.7-1.8,0.3l-0.2-0.1c-0.5-0.4-0.6-1.2-0.3-1.8
			c0.1-0.2,0.2-0.3,0.3-0.5c0.3-0.5,0.1-1.2-0.5-1.4c-0.6-0.2-1.3-0.4-1.9-0.5c-1.1-0.2-2.1-0.3-3.2-0.3c-0.1,0-0.1,0-0.3,0
			c-0.5,0-0.8,0.4-1,0.8c-0.7,2.9-1.1,5.6-1.2,8.1c-0.1,2.2,0.1,4,0.4,5.6c0.1,0.4,0.7,0.5,0.9,0.1c0.7-1.5,1.6-3.3,2.6-5.3
			c0.6-1.1,1.2-2.2,1.8-3.3c0.4-0.8,1.5-0.9,2.1-0.3c0.5,0.4,0.6,1.1,0.3,1.7c-0.9,1.6-1.7,3.1-2.5,4.6c-1.1,2.2-2,4.1-2.7,5.7
			c-0.3,0.7-0.1,1.5,0.5,1.9c0.2,0.1,0.3,0.2,0.3,0.2c0.2,0.1,0.4,0.2,0.6,0.3c0.2,0.1,0.5,0.2,0.7,0.3h0.1c0.2,0.1,0.5,0.2,0.7,0.2
			c0.3,0.1,0.5,0.1,0.8,0.2c0,0,0.1,0,0.2,0c0.1,0,0.1,0,0.2,0c0.3,0,0.6,0.1,0.9,0.2c0.3,0.1,0.6,0.1,0.9,0.2c0,0,0.1,0,0.1,0
			c0,0,0.1,0,0.1,0c0.3,0,0.6,0.1,0.9,0.1c0.3,0,0.7,0,1,0c0,0,0.1,0,0.2,0c0.1,0,0.2,0,0.3,0c0.1,0,0.2,0,0.2,0c0.1,0,0.1,0,0.2,0
			c0.1,0,0.2,0,0.3,0c0.1,0,0.2,0,0.3,0c0.4,0,0.8-0.1,1.1-0.1c0.4,0,0.8,0,1.2-0.1c0.2,0,0.3-0.1,0.5-0.1s0.3,0,0.5-0.1h0
			c1,0,1.8-0.7,2.1-1.6c0.1-0.4,0.2-0.7,0.2-1.1c0.2-0.8,0.2-1.7,0.2-2.6c0-2.8-0.7-5.3-2-7.7C38.7,69.6,37.6,68.2,36.2,67z"/>
		<path class="st1" d="M29.5,59.1c0.3,0.1,0.6,0.1,1,0.2c0.9,0.2,1.7,0.5,2.6,0.8c0.9,0.3,1.8,0,2.4-0.7c0.2-0.3,0.5-0.7,0.7-1
			c0.2-0.3,0.5-0.6,0.7-0.9c0.6-0.7,0-1.8-0.9-1.9c0,0-0.1,0-0.1,0c-0.6,0-0.9,0-0.9,0.1c-0.3,0-0.6-0.1-0.8-0.3
			c-0.2-0.2-0.3-0.4-0.4-0.7c0-0.3,0-0.6,0.2-0.8c0.2-0.2,0.4-0.4,0.7-0.4c0.1,0,0.6-0.1,1.5,0c0.6,0,1.3,0.1,2.1,0.4
			c0.7,0.2,1.5,0,1.9-0.6c0.4-0.5,0.8-1,1.2-1.4c0.5-0.6,1-1.2,1.6-1.7c0.3-0.3,0.1-0.8-0.3-0.9c-0.7-0.1-1.5-0.2-2.3-0.2
			c-0.3,0-0.6,0-0.8-0.2c-0.2-0.2-0.4-0.4-0.4-0.7c0-0.3,0.1-0.5,0.3-0.7c0.2-0.2,0.4-0.4,0.7-0.4c0.1,0,0.6,0,1.6,0
			c0.8,0,1.8,0.2,2.8,0.6c0.4,0.2,0.9,0,1.2-0.3c0.5-0.5,1-1,1.5-1.5c0.4-0.4,0.9-0.8,1.3-1.2c0.4-0.4,0.2-1.1-0.3-1.2
			c-0.8-0.2-1.7-0.3-2.6-0.3c-0.3,0-0.6,0-0.8-0.2c-0.2-0.2-0.4-0.4-0.4-0.7c0-0.3,0-0.5,0.2-0.7c0.2-0.2,0.4-0.4,0.7-0.4
			c0.1,0,0.7,0,1.9,0c1,0,2,0.3,3.2,0.8c0.5,0.2,1.1,0.2,1.5-0.2c0.6-0.5,1.2-0.9,1.7-1.4c0.5-0.4,1-0.8,1.6-1.2
			c0.5-0.3,0.3-1-0.2-1.2c-0.5-0.2-1-0.2-1.5-0.3c-0.8,0-1.2,0-1.2,0c-0.3,0-0.6,0-0.8-0.2c-0.2-0.2-0.4-0.4-0.4-0.7
			c0-0.3,0-0.5,0.2-0.7c0.2-0.2,0.4-0.4,0.7-0.4c0.1,0,0.8,0,2.1,0.1c0.7,0,1.6,0.2,2.4,0.5c0.6,0.2,1.3,0.8,2,0.8
			c0.6,0,1.2-0.6,1.7-1c0.1-0.1,0.2-0.2,0.3-0.2c0.7-0.4,0.6-1.5-0.1-1.7c-0.8-0.3-1.6-0.6-2.5-0.8c-0.5-0.1-1-0.3-1.6-0.4
			c-1.7-0.3-3.5-0.2-5.1,0.3l0,0c-0.1,0.1-0.3,0.1-0.5,0.2c-0.2,0-0.3,0.1-0.5,0.2c-0.6,0.2-1.1,0.5-1.7,0.7
			c-0.6,0.3-1.1,0.5-1.7,0.8c-0.1,0-0.2,0.1-0.3,0.2c-0.1,0.1-0.2,0.1-0.3,0.2c-0.5,0.3-1,0.5-1.4,0.8c-0.5,0.3-1,0.6-1.4,0.9
			c-0.2,0.1-0.3,0.2-0.5,0.3c-0.2,0.1-0.3,0.3-0.5,0.4c-0.4,0.3-0.8,0.5-1.2,0.8c-0.4,0.3-0.8,0.6-1.2,0.9c-0.2,0.1-0.3,0.3-0.5,0.4
			c-0.2,0.1-0.3,0.3-0.5,0.4c-0.5,0.4-1,0.9-1.5,1.3c-0.5,0.5-1,1-1.5,1.5c-2.3,2.4-4.2,4.9-5.8,7.6c-0.9,1.6-1.8,3.2-2.5,4.8
			C26.9,56.9,27.8,58.7,29.5,59.1z"/>
		<path class="st1" d="M75.2,33.2c-0.6-0.6-1.6-0.8-2.4-0.5c-0.7,0.2-1.5,0.5-2.2,0.8c-0.2,0.1-0.4,0.2-0.6,0.2
			c-0.8,0.3-1.2,1.1-1.1,1.8c0.1,0.7-0.3,1.4-0.9,1.7l-0.3,0.1c-0.4,0.2-0.9,0.1-1.2-0.1c-1.2-0.6-2.7-0.6-3.9,0.1l0,0
			c-0.5,0.3-1,0.6-1.5,0.9c-0.4,0.2-0.5,0.7-0.2,1.1c0.2,0.3,0.4,0.5,0.6,0.8c0.4,0.5,0.7,1.1,1.1,1.8c0.1,0.3,0.1,0.5,0.1,0.8
			c-0.1,0.3-0.3,0.5-0.6,0.7c0,0-0.1,0.1-0.2,0.1c-0.1,0-0.2,0-0.3,0c-0.2,0-0.4,0-0.6-0.1c-0.2-0.1-0.3-0.2-0.4-0.5
			c-0.3-0.6-0.7-1.1-1.1-1.6c-0.1-0.1-0.2-0.2-0.2-0.3c-0.5-0.6-1.3-0.7-2-0.3c-0.6,0.4-1.1,0.8-1.6,1.2c-0.6,0.4-1.1,0.9-1.7,1.3
			c-0.5,0.4-0.5,1-0.1,1.5c0.2,0.3,0.4,0.5,0.7,0.8c0.5,0.6,0.9,1.2,1.3,2c0.1,0.3,0.1,0.5,0.1,0.8c-0.1,0.3-0.3,0.5-0.5,0.7
			c-0.1,0-0.2,0-0.3,0c-0.1,0-0.2,0-0.3,0c-0.2,0-0.3,0-0.5-0.1c-0.2-0.1-0.3-0.2-0.5-0.5c-0.3-0.6-0.7-1.2-1.1-1.7
			c-0.1-0.1-0.1-0.2-0.2-0.3c-0.5-0.6-1.5-0.7-2.1-0.1c-0.4,0.3-0.7,0.7-1.1,1c-0.4,0.3-0.7,0.7-1.1,1c-0.5,0.5-0.5,1.3,0,1.8
			c0.3,0.3,0.5,0.5,0.8,0.8c0.6,0.7,1.1,1.5,1.5,2.4c0.1,0.3,0.1,0.5,0.1,0.8c-0.1,0.3-0.3,0.5-0.5,0.6c-0.1,0-0.2,0.1-0.3,0.1
			c-0.1,0-0.2,0-0.3,0c-0.2,0-0.3,0-0.5-0.1c-0.2-0.1-0.3-0.2-0.5-0.5c-0.4-0.8-0.8-1.5-1.3-2.1c-0.3-0.4-0.6-0.7-1-1
			c-0.3-0.3-0.8-0.2-1,0.1c-0.6,0.6-1.1,1.3-1.7,1.9c-0.5,0.6-1,1.1-1.5,1.7c-0.3,0.4-0.3,0.9,0.1,1.2c0.4,0.4,0.9,0.8,1.3,1.3
			c0.6,0.7,1.2,1.6,1.7,2.6c0.1,0.3,0.2,0.5,0.1,0.8c-0.1,0.3-0.3,0.5-0.5,0.6c-0.1,0-0.2,0.1-0.3,0.1c-0.1,0-0.2,0-0.3,0
			c-0.2,0-0.3-0.1-0.5-0.2c-0.2-0.1-0.3-0.2-0.4-0.4c-0.5-0.9-1-1.6-1.5-2.2c-0.2-0.3-0.5-0.5-0.7-0.7c-0.5-0.4-1.2-0.4-1.6,0.1
			c-0.4,0.5-0.7,1-1.1,1.5c-0.2,0.2-0.3,0.4-0.5,0.6c-0.7,0.9-0.5,2.2,0.4,2.9c2,1.6,3.7,3.6,5.1,6c1.7,3,2.5,6.2,2.5,9.8
			c0,0.7,0,1.4-0.1,2.1c0,0.1,0,0.1,0,0.2c-0.1,0.9,0.7,1.5,1.6,1.3c0.4-0.1,0.8-0.2,0.9-0.3c0.5-0.1,0.9-0.3,1.3-0.5
			c0.2,0,0.4-0.1,0.6-0.2c0.2-0.1,0.3-0.1,0.5-0.2c0.6-0.2,1.2-0.5,1.7-0.7c0.6-0.3,1.1-0.5,1.7-0.8c0,0,0.1,0,0.1,0
			c0,0,0.1-0.1,0.1-0.1c0.6-0.3,1.2-0.6,1.8-0.9c0.6-0.3,1.2-0.7,1.8-1c0.1-0.1,0.3-0.2,0.5-0.3c0.2-0.1,0.3-0.2,0.5-0.4
			c0.4-0.3,0.9-0.5,1.3-0.8c0.4-0.3,0.9-0.6,1.3-1c0.1-0.1,0.3-0.2,0.5-0.4c0.2-0.1,0.3-0.2,0.5-0.4c0.6-0.5,1.1-0.9,1.6-1.4
			c0.5-0.5,1-1,1.5-1.5c1.4-1.4,2.7-2.8,3.8-4.3c1.1-1.5,2.2-3.1,3.1-4.6c0.9-1.6,1.7-3.1,2.3-4.8c0.1-0.3,0.2-0.6,0.3-0.8
			c1.1-2.7,1.1-5.8,0.1-8.5c-0.1-0.2-0.1-0.4-0.2-0.6c-0.7-1.7-1.5-3.2-2.5-4.7c-1-1.5-2.2-2.8-3.4-4c0,0,0,0,0,0
			c-0.5-0.5-0.4-1.4,0.3-1.7l0.3-0.1c0.4-0.1,0.8-0.1,1.1,0.2c1,1,1.9,2,2.8,3.1c1.3,1.7,2.3,3.4,3.2,5.3c0.3,0.6,1.2,0.4,1.2-0.2
			c0.1-2.4,0-4.6-0.2-6.7C77.6,36,76.2,34.2,75.2,33.2z"/>
		<path class="st1" d="M97.9,26.1L54.3,1c-1.1-0.6-2.4-1-3.6-1s-2.5,0.3-3.6,1L3.6,26.1C1.4,27.4,0,29.8,0,32.3v50.3
			c0,2.6,1.4,5,3.6,6.2L47.1,114c1.1,0.6,2.4,1,3.6,1s2.5-0.3,3.6-1l43.5-25.1c2.2-1.3,3.6-3.7,3.6-6.2V32.3
			C101.5,29.8,100.1,27.4,97.9,26.1z M80.9,50.6c-0.7,4-2.1,8.2-4.2,12.3c-2.1,4.2-4.9,8-8.3,11.5c-2.5,2.4-5.1,4.5-7.9,6.2
			c-2.8,1.7-5.6,3.1-8.4,4.1c-2.8,1.1-5.6,1.8-8.3,2.3c-2.7,0.5-5.2,0.7-7.4,0.7c-1.9,0-4-0.2-6.4-0.7c-2.3-0.5-4.3-1.4-5.9-2.9
			c-1.2-1.2-2.2-2.7-2.9-4.6c-0.7-1.9-1.1-4.1-1.1-6.5c0-2.3,0.2-4.8,0.6-7.5c0.5-2.7,1.2-5.6,2.3-8.5c1.1-2.9,2.5-5.8,4.2-8.6
			c1.7-2.8,3.7-5.5,6.1-8c2.4-2.5,4.9-4.5,7.6-6.2c2.7-1.7,5.4-3.1,8.1-4.1c2.7-1.1,5.4-1.8,8-2.3c2.6-0.5,5-0.7,7.1-0.7
			c2,0,4.3,0.3,6.8,0.8c2.5,0.5,4.6,1.7,6.3,3.4c1.9,2,3.2,4.6,3.8,8C81.6,42.9,81.6,46.6,80.9,50.6z"/>
	</g>
</g>
</svg>
